Tilt-Warp.ufo
<glyph name="exclam" format="2">
  <advance width="291"/>
  <unicode hex="0021"/>
  <outline>
    <contour>
      <point x="63" y="245" type="curve" name="UAXKFEJM"/>
      <point x="117" y="245" name="JZTQKWYQ"/>
      <point x="174" y="245" name="RJTDFYQY"/>
      <point x="228" y="245" type="curve" name="JLGIOBAH"/>
      <point x="230" y="389" name="IRLRDUYS"/>
      <point x="231" y="536" name="RQQKQTGE"/>
      <point x="233" y="680" type="curve" name="JWFWBWSW"/>
      <point x="175" y="680" name="YOEJJLCK"/>
      <point x="116" y="680" name="UMWPQGKG"/>
      <point x="58" y="680" type="curve" name="GDEEWQYC"/>
      <point x="60" y="536" name="EBJJZEHF"/>
      <point x="61" y="389" name="BXXBTHPD"/>
    </contour>
    <contour>
      <point x="146" y="-16" type="curve" name="OODAGBVF"/>
      <point x="203" y="-16" name="ZPPAXNKC"/>
      <point x="251" y="31" name="RMONFRVX"/>
      <point x="251" y="88" type="curve" smooth="yes" name="VXVRKXLC"/>
      <point x="251" y="144" name="XOPGMKUX"/>
      <point x="203" y="191" name="LRDJWFZK"/>
      <point x="146" y="191" type="curve" smooth="yes" name="YTRAWADO"/>
      <point x="87" y="191" name="MNWYLZWF"/>
      <point x="40" y="144" name="PVZUHHUI"/>
      <point x="40" y="88" type="curve" smooth="yes" name="WHJTEWIT"/>
      <point x="40" y="31" name="NGNRPXOQ"/>
      <point x="87" y="-16" name="EQRVHCZD"/>
      <point x="146" y="-16" type="curve" name="LLRNFALR"/>
      <point x="146" y="-16" name="JUAKAZAP"/>
      <point x="146" y="-16" name="LUBASZZH"/>
    </contour>
  </outline>
</glyph>
<glyph name="dollar" format="2">
  <advance width="500"/>
  <unicode hex="0024"/>
  <outline>
    <contour>
      <point x="153" y="-100" type="curve" name="MREWAKZL"/>
      <point x="202" y="-100" name="PWLLZUNA"/>
      <point x="253" y="-100" name="IFPBRVII"/>
      <point x="302" y="-100" type="curve" name="NMHXINIV"/>
      <point x="305" y="-58" name="ADDDFKVY"/>
      <point x="307" y="-16" name="WCOWEQYW"/>
      <point x="310" y="26" type="curve" name="JNCYRCZK"/>
      <point x="410" y="46" name="MOPYVEKG"/>
      <point x="481" y="105" name="MPFZLMOE"/>
      <point x="481" y="210" type="curve" smooth="yes" name="VVVZLZFA"/>
      <point x="481" y="422" name="CFFSYOJC"/>
      <point x="217" y="399" name="TETQMPHL"/>
      <point x="217" y="468" type="curve" smooth="yes" name="KXPJLLLM"/>
      <point x="217" y="516" name="PEVEHJUF"/>
      <point x="322" y="524" name="EXWCKVVY"/>
      <point x="449" y="467" type="curve" name="RYFSMVCX"/>
      <point x="449" y="522" name="XYGKTDXO"/>
      <point x="449" y="579" name="PHLBAKID"/>
      <point x="449" y="634" type="curve" name="BPUDJJUO"/>
      <point x="416" y="644" name="GKSWQDDV"/>
      <point x="383" y="651" name="AVKCTPQR"/>
      <point x="351" y="655" type="curve" name="YLZXHWYC"/>
      <point x="354" y="693" name="FQCFGJGW"/>
      <point x="356" y="732" name="YLHNUNDD"/>
      <point x="359" y="770" type="curve" name="YVWYOALM"/>
      <point x="310" y="770" name="LBKIGCPK"/>
      <point x="259" y="770" name="BPWQESKQ"/>
      <point x="210" y="770" type="curve" name="PYMCDKRG"/>
      <point x="207" y="729" name="DKMEFQVS"/>
      <point x="205" y="688" name="ZVPZPTID"/>
      <point x="202" y="647" type="curve" name="PJSLFBZZ"/>
      <point x="106" y="623" name="APCYNBCW"/>
      <point x="40" y="560" name="DKXIADTE"/>
      <point x="40" y="465" type="curve" smooth="yes" name="PJKZVZIF"/>
      <point x="40" y="260" name="VFSPMIUP"/>
      <point x="305" y="281" name="EZIMYHQG"/>
      <point x="305" y="211" type="curve" smooth="yes" name="DKJKMRAS"/>
      <point x="305" y="157" name="VHFPIQAP"/>
      <point x="184" y="156" name="EWKRXEVQ"/>
      <point x="50" y="209" type="curve" name="ZIWLECKL"/>
      <point x="50" y="154" name="EKYXEOSQ"/>
      <point x="50" y="97" name="KJMOKHHD"/>
      <point x="50" y="42" type="curve" name="EUAZMAHN"/>
      <point x="87" y="32" name="PNQDBFUB"/>
      <point x="125" y="24" name="UAYLJMGL"/>
      <point x="161" y="21" type="curve" name="QZTINQPN"/>
      <point x="158" y="-19" name="PFLQWVGN"/>
      <point x="156" y="-60" name="KTEEQMGJ"/>
    </contour>
  </outline>
</glyph>
<glyph name="quotesingle" format="2">
  <advance width="297"/>
  <unicode hex="0027"/>
  <outline>
    <contour>
      <point x="78" y="398" type="curve" name="UAEQMGQS"/>
      <point x="125" y="398" name="DZRAGERI"/>
      <point x="172" y="398" name="BYSQPENC"/>
      <point x="219" y="398" type="curve" name="BTSPJKUW"/>
      <point x="224" y="491" name="ZOWUMEAZ"/>
      <point x="228" y="587" name="ZNJDBIKS"/>
      <point x="233" y="680" type="curve" name="QOLZUEIQ"/>
      <point x="177" y="680" name="GLXXBLJU"/>
      <point x="120" y="680" name="MCUYKJOW"/>
      <point x="64" y="680" type="curve" name="VNDZIQVT"/>
      <point x="69" y="587" name="QHBSXILA"/>
      <point x="73" y="491" name="IOAAKJSO"/>
    </contour>
  </outline>
</glyph>
<glyph name="parenright" format="2">
  <advance width="462"/>
  <unicode hex="0029"/>
  <outline>
    <contour>
      <point x="431" y="306" type="curve" name="XGBHGHRA"/>
      <point x="431" y="615" name="FKWHARGP"/>
      <point x="239" y="777" name="SBBAMCWR"/>
      <point x="30" y="802" type="curve" name="PNUWLXYH"/>
      <point x="30" y="752" name="MMWQNHNC"/>
      <point x="30" y="702" name="KMXNECFG"/>
      <point x="30" y="652" type="curve" name="QRJBJARE"/>
      <point x="169" y="618" name="BEPLNOWT"/>
      <point x="263" y="523" name="UFJLWYKL"/>
      <point x="263" y="306" type="curve" smooth="yes" name="JKEQPEMW"/>
      <point x="263" y="89" name="WHPUHNIX"/>
      <point x="169" y="-6" name="KLBSQHPH"/>
      <point x="30" y="-40" type="curve" name="DDJSHQXZ"/>
      <point x="30" y="-90" name="IZPYNESK"/>
      <point x="30" y="-140" name="RFIMKJKD"/>
      <point x="30" y="-190" type="curve" name="HZRNNSOF"/>
      <point x="239" y="-165" name="JVZATBAF"/>
      <point x="431" y="-3" name="KSKPBKAF"/>
      <point x="431" y="306" type="curve" name="QIZHBXAU"/>
      <point x="431" y="306" name="LQGVBOEM"/>
      <point x="431" y="306" name="PFOXVISJ"/>
    </contour>
  </outline>
</glyph>
<glyph name="comma" format="2">
  <advance width="297"/>
  <unicode hex="002C"/>
  <outline>
    <contour>
      <point x="28" y="-101" type="curve" name="HJDGNTEJ"/>
      <point x="76" y="-101" name="IDWTCQML"/>
      <point x="124" y="-101" name="SKUZZZBZ"/>
      <point x="172" y="-101" type="curve" name="PACAEACX"/>
      <point x="196" y="-8" name="OLLTEOFE"/>
      <point x="222" y="88" name="ITCEFQLP"/>
      <point x="246" y="181" type="curve" name="REMWPBID"/>
      <point x="190" y="181" name="GBCOJPPA"/>
      <point x="133" y="181" name="CGFRFOXM"/>
      <point x="77" y="181" type="curve" name="DMWWMRIV"/>
      <point x="61" y="88" name="ZTBMLCJP"/>
      <point x="44" y="-8" name="RHBIZKAT"/>
    </contour>
  </outline>
</glyph>
<glyph name="slash" format="2">
  <advance width="490"/>
  <unicode hex="002F"/>
  <outline>
    <contour>
      <point x="5" y="-160" type="curve" name="UBVWNORH"/>
      <point x="59" y="-160" name="BKYDZCYI"/>
      <point x="116" y="-160" name="HFAPIQPZ"/>
      <point x="170" y="-160" type="curve" name="NRGVJFRE"/>
      <point x="269" y="147" name="VVCKEXCW"/>
      <point x="371" y="463" name="THTHWGUE"/>
      <point x="470" y="770" type="curve" name="CSULRHDR"/>
      <point x="416" y="770" name="LIDXXZCL"/>
      <point x="359" y="770" name="UWAXRRTF"/>
      <point x="305" y="770" type="curve" name="ZJUKMOXV"/>
      <point x="206" y="463" name="DHDRNXEW"/>
      <point x="104" y="147" name="QOEWJFQM"/>
    </contour>
  </outline>
</glyph>
<glyph name="four" format="2">
  <advance width="583"/>
  <unicode hex="0034"/>
  <outline>
    <contour>
      <point x="25" y="129" type="curve" name="YIXCNHBW"/>
      <point x="120" y="129" name="SQGNSGKM"/>
      <point x="217" y="129" name="JWWQHQRZ"/>
      <point x="312" y="129" type="curve" name="QSIKQYVO"/>
      <point x="312" y="86" name="MTUKLCXP"/>
      <point x="312" y="43" name="AFKCIPCR"/>
      <point x="312" y="0" type="curve" name="SPTMINLY"/>
      <point x="368" y="0" name="PFHVWYME"/>
      <point x="427" y="0" name="KHSDEIZQ"/>
      <point x="483" y="0" type="curve" name="FEXLNFNA"/>
      <point x="483" y="43" name="FDOVSQWE"/>
      <point x="483" y="86" name="YLTWRZGH"/>
      <point x="483" y="129" type="curve" name="UIVZWWCN"/>
      <point x="514" y="129" name="DHAEXAML"/>
      <point x="547" y="129" name="GHVMOZWH"/>
      <point x="578" y="129" type="curve" name="MIPIXCBJ"/>
      <point x="578" y="181" name="VLMLARUL"/>
      <point x="578" y="236" name="ZMIAPIKV"/>
      <point x="578" y="288" type="curve" name="MVATSVKX"/>
      <point x="547" y="288" name="RGCYUIFP"/>
      <point x="514" y="288" name="TGOEAXVS"/>
      <point x="483" y="288" type="curve" name="ZTXHEJYS"/>
      <point x="483" y="417" name="QKUTOKDH"/>
      <point x="483" y="551" name="DUQQQIKR"/>
      <point x="483" y="680" type="curve" name="NOZNRRFR"/>
      <point x="398" y="680" name="XWUTYUZM"/>
      <point x="311" y="680" name="JMADEXJH"/>
      <point x="226" y="680" type="curve" name="JQPIENOT"/>
      <point x="160" y="551" name="GGHFWAOB"/>
      <point x="91" y="417" name="CNBPDQXQ"/>
      <point x="25" y="288" type="curve" name="RWJFWNYJ"/>
      <point x="25" y="236" name="AXWPYLJE"/>
      <point x="25" y="181" name="EQJJMFJR"/>
    </contour>
    <contour>
      <point x="205" y="288" type="curve" name="QBJKWZCN"/>
      <point x="240" y="363" name="LDLVLZVX"/>
      <point x="277" y="441" name="VYUCQHNG"/>
      <point x="312" y="516" type="curve" name="ACMOKOQU"/>
      <point x="312" y="441" name="QDFOIILC"/>
      <point x="312" y="363" name="WEKGOZIZ"/>
      <point x="312" y="288" type="curve" name="LQZDJKJQ"/>
      <point x="277" y="288" name="KYTMYXHX"/>
      <point x="240" y="288" name="IIHJJCTB"/>
    </contour>
  </outline>
</glyph>
<glyph name="five" format="2">
  <advance width="519"/>
  <unicode hex="0035"/>
  <outline>
    <contour>
      <point x="53" y="285" type="curve" name="IKHYTIQU"/>
      <point x="207" y="310" name="MAJGGSYH"/>
      <point x="327" y="294" name="CKEAUSCI"/>
      <point x="327" y="216" type="curve" smooth="yes" name="LWTWNHEW"/>
      <point x="327" y="137" name="IPYGAKSG"/>
      <point x="211" y="136" name="JYCGUNHK"/>
      <point x="45" y="188" type="curve" name="MUUBRXQT"/>
      <point x="45" y="133" name="QIQIFICA"/>
      <point x="45" y="76" name="DETWQXRX"/>
      <point x="45" y="21" type="curve" name="VWSIZMBU"/>
      <point x="284" y="-48" name="JAJIVCBA"/>
      <point x="499" y="13" name="UKWAQDON"/>
      <point x="499" y="221" type="curve" smooth="yes" name="IRGJHKNB"/>
      <point x="499" y="366" name="VZXUYLHR"/>
      <point x="398" y="443" name="BAFBLHZQ"/>
      <point x="228" y="441" type="curve" name="MUBHAIFK"/>
      <point x="231" y="467" name="BQUXZLEF"/>
      <point x="235" y="495" name="DKXONOCL"/>
      <point x="238" y="521" type="curve" name="XGURWCWQ"/>
      <point x="312" y="521" name="LBDRHWCX"/>
      <point x="389" y="521" name="ZIHYMNUC"/>
      <point x="463" y="521" type="curve" name="DENRQXTC"/>
      <point x="463" y="573" name="FVHTSAFL"/>
      <point x="463" y="628" name="ETXKRCQS"/>
      <point x="463" y="680" type="curve" name="HGTMVYUA"/>
      <point x="340" y="680" name="LGGXRJEY"/>
      <point x="212" y="680" name="RHEEYHFI"/>
      <point x="89" y="680" type="curve" name="XFETQPHI"/>
      <point x="77" y="550" name="KAKAVPYM"/>
      <point x="65" y="415" name="EHZGRAWQ"/>
    </contour>
  </outline>
</glyph>
<glyph name="nine" format="2">
  <advance width="563"/>
  <unicode hex="0039"/>
  <outline>
    <contour>
      <point x="69" y="189" type="curve" name="KNTYXKDF"/>
      <point x="69" y="132" name="SDTFQBIH"/>
      <point x="69" y="73" name="EUUTGHZT"/>
      <point x="69" y="16" type="curve" name="VPLBPZZQ"/>
      <point x="346" y="-57" name="NAXBTFNC"/>
      <point x="538" y="71" name="KMVXKAVW"/>
      <point x="538" y="363" type="curve" smooth="yes" name="SJRKJRBX"/>
      <point x="538" y="581" name="GPUPAYIW"/>
      <point x="428" y="694" name="DXZNZPYS"/>
      <point x="273" y="694" type="curve" smooth="yes" name="EKFYQRPH"/>
      <point x="119" y="694" name="YLVWTBKJ"/>
      <point x="18" y="588" name="ARBXDBSO"/>
      <point x="18" y="449" type="curve" smooth="yes" name="UPVNOYHG"/>
      <point x="18" y="232" name="YOBFIAST"/>
      <point x="245" y="179" name="IMCSKHBY"/>
      <point x="364" y="272" type="curve" name="QOHOCOSG"/>
      <point x="354" y="154" name="QOEDONEH"/>
      <point x="208" y="126" name="JRPKWXSD"/>
      <point x="69" y="189" type="curve" name="HMHZWJFL"/>
      <point x="69" y="189" name="XWEYKGGE"/>
      <point x="69" y="189" name="MYLGLHHI"/>
    </contour>
    <contour>
      <point x="274" y="537" type="curve" name="QVHTSORV"/>
      <point x="322" y="537" name="XJLXOELD"/>
      <point x="355" y="501" name="HOGXGMNK"/>
      <point x="355" y="449" type="curve" smooth="yes" name="CFSCESZC"/>
      <point x="355" y="400" name="RLJJZSHJ"/>
      <point x="322" y="367" name="HUUPMIMH"/>
      <point x="274" y="367" type="curve" smooth="yes" name="LBRUTRTA"/>
      <point x="225" y="367" name="PPJMRLKE"/>
      <point x="191" y="401" name="ZFQSNEYB"/>
      <point x="191" y="452" type="curve" smooth="yes" name="IYAJMSNA"/>
      <point x="191" y="502" name="OPLGAUAW"/>
      <point x="225" y="537" name="QDPBDEJP"/>
      <point x="274" y="537" type="curve" name="JNZYIDLT"/>
      <point x="274" y="537" name="AAEWANST"/>
      <point x="274" y="537" name="TBROMEOP"/>
    </contour>
  </outline>
</glyph>
<glyph name="colon" format="2">
  <advance width="291"/>
  <unicode hex="003A"/>
  <outline>
    <contour>
      <point x="146" y="326" type="curve" name="MNWNONEL"/>
      <point x="203" y="326" name="YGSGRKBA"/>
      <point x="251" y="373" name="UDOVXUGM"/>
      <point x="251" y="430" type="curve" smooth="yes" name="TMKTVPID"/>
      <point x="251" y="486" name="PDMXMHST"/>
      <point x="203" y="533" name="EVORXJED"/>
      <point x="146" y="533" type="curve" smooth="yes" name="BSHFKHBD"/>
      <point x="87" y="533" name="WZWTGEBA"/>
      <point x="40" y="486" name="LYYBXUUX"/>
      <point x="40" y="430" type="curve" smooth="yes" name="UKOGOKYZ"/>
      <point x="40" y="373" name="ZKPSQQBO"/>
      <point x="87" y="326" name="PPDPLGST"/>
      <point x="146" y="326" type="curve" name="RCOTYRPZ"/>
      <point x="146" y="326" name="MMFCFTBT"/>
      <point x="146" y="326" name="OGNYVTID"/>
    </contour>
    <contour>
      <point x="146" y="-16" type="curve" name="ACVSQOVU"/>
      <point x="203" y="-16" name="CPCZJPPX"/>
      <point x="251" y="31" name="VGDBHQMV"/>
      <point x="251" y="88" type="curve" smooth="yes" name="FXHBDTZU"/>
      <point x="251" y="144" name="HLAGIKDX"/>
      <point x="203" y="191" name="NKNCARPI"/>
      <point x="146" y="191" type="curve" smooth="yes" name="IGMINHDQ"/>
      <point x="87" y="191" name="WDYEJKUQ"/>
      <point x="40" y="144" name="IHZARHWS"/>
      <point x="40" y="88" type="curve" smooth="yes" name="UCQHCJSN"/>
      <point x="40" y="31" name="TATFRDOP"/>
      <point x="87" y="-16" name="BTATAGXY"/>
      <point x="146" y="-16" type="curve" name="EUPBKTOT"/>
      <point x="146" y="-16" name="HOVATDLZ"/>
      <point x="146" y="-16" name="DNIHWJES"/>
    </contour>
  </outline>
</glyph>
<glyph name="semicolon" format="2">
  <advance width="291"/>
  <unicode hex="003B"/>
  <outline>
    <contour>
      <point x="147" y="326" type="curve" name="FRKLBKHJ"/>
      <point x="204" y="326" name="RMGKACAL"/>
      <point x="252" y="373" name="BNRWBBQR"/>
      <point x="252" y="430" type="curve" smooth="yes" name="NIJOPOVN"/>
      <point x="252" y="486" name="BQXTTLLD"/>
      <point x="204" y="533" name="AERUGHZX"/>
      <point x="147" y="533" type="curve" smooth="yes" name="BIWQEWSN"/>
      <point x="88" y="533" name="QGECEREN"/>
      <point x="41" y="486" name="TQQIZVJR"/>
      <point x="41" y="430" type="curve" smooth="yes" name="SRPPKMOS"/>
      <point x="41" y="373" name="NAUALLYY"/>
      <point x="88" y="326" name="AJDUCMSA"/>
      <point x="147" y="326" type="curve" name="QVFZSWKA"/>
      <point x="147" y="326" name="BAURKGLZ"/>
      <point x="147" y="326" name="ORDOFYUL"/>
    </contour>
    <contour>
      <point x="15" y="-101" type="curve" name="KDQHNOWX"/>
      <point x="63" y="-101" name="RDTBRVCK"/>
      <point x="111" y="-101" name="PRENRMWK"/>
      <point x="159" y="-101" type="curve" name="PPKCVYUP"/>
      <point x="183" y="-8" name="WMCOQZTP"/>
      <point x="209" y="88" name="QLDDGAFG"/>
      <point x="233" y="181" type="curve" name="GSPJZTXL"/>
      <point x="177" y="181" name="QPUSWZFV"/>
      <point x="120" y="181" name="MYBCBRHV"/>
      <point x="64" y="181" type="curve" name="FXXGOSCD"/>
      <point x="48" y="88" name="GWKYXTZF"/>
      <point x="31" y="-8" name="JHICTTAH"/>
    </contour>
  </outline>
</glyph>
<glyph name="at" format="2">
  <advance width="956"/>
  <unicode hex="0040"/>
  <outline>
    <contour>
      <point x="674" y="-132" type="curve" name="FQZAFNCQ"/>
      <point x="674" y="-90" name="LXXKHWFQ"/>
      <point x="674" y="-46" name="NXPTJDYG"/>
      <point x="674" y="-4" type="curve" name="VPYNEDCH"/>
      <point x="408" y="-108" name="TICFWEAE"/>
      <point x="176" y="20" name="QOBITSYY"/>
      <point x="176" y="261" type="curve" smooth="yes" name="DZUTLLSC"/>
      <point x="176" y="442" name="ZODSNTSK"/>
      <point x="310" y="576" name="VHIYUKQK"/>
      <point x="499" y="576" type="curve" smooth="yes" name="IEQUALJJ"/>
      <point x="682" y="576" name="TXYKVUZA"/>
      <point x="804" y="465" name="UYWEINTU"/>
      <point x="804" y="308" type="curve" smooth="yes" name="SLKFSWHS"/>
      <point x="804" y="227" name="YEJVLEML"/>
      <point x="760" y="182" name="WKIOVEOH"/>
      <point x="724" y="182" type="curve" smooth="yes" name="KRYHFXAU"/>
      <point x="702" y="182" name="ERMZJYFA"/>
      <point x="691" y="194" name="GDRXFGPU"/>
      <point x="691" y="217" type="curve" smooth="yes" name="DVQLKDAE"/>
      <point x="691" y="299" name="MRZQRHLD"/>
      <point x="691" y="382" name="PIMFULUH"/>
      <point x="691" y="464" type="curve" name="RFIXBLPI"/>
      <point x="648" y="464" name="XEMBRBXY"/>
      <point x="604" y="464" name="FUIEHKVA"/>
      <point x="561" y="464" type="curve" name="ONFSCQTZ"/>
      <point x="561" y="456" name="LXCNBPVE"/>
      <point x="561" y="448" name="JXMLWDKL"/>
      <point x="561" y="440" type="curve" name="UJGGTJDO"/>
      <point x="537" y="461" name="HSBSKVAC"/>
      <point x="504" y="474" name="UOXZARYZ"/>
      <point x="468" y="474" type="curve" smooth="yes" name="XGIFKWIW"/>
      <point x="368" y="474" name="JAQZHOZU"/>
      <point x="280" y="391" name="SOQPNWLS"/>
      <point x="280" y="265" type="curve" smooth="yes" name="GYBVVHZQ"/>
      <point x="280" y="141" name="CPCDWZSV"/>
      <point x="368" y="55" name="IBFVDCQZ"/>
      <point x="469" y="55" type="curve" smooth="yes" name="CGGTEDDF"/>
      <point x="522" y="55" name="VWREYUDU"/>
      <point x="568" y="77" name="AVCCNGYW"/>
      <point x="597" y="111" type="curve" name="QZUPUKSB"/>
      <point x="621" y="80" name="OVHPASBG"/>
      <point x="656" y="63" name="WHRZIXUD"/>
      <point x="703" y="63" type="curve" smooth="yes" name="GEVITFRM"/>
      <point x="819" y="63" name="YRQOLTWD"/>
      <point x="930" y="154" name="FRKBGAUP"/>
      <point x="930" y="315" type="curve" smooth="yes" name="PMFLCHND"/>
      <point x="930" y="538" name="ZWBTEVGC"/>
      <point x="755" y="696" name="IHAFHYGC"/>
      <point x="502" y="696" type="curve" smooth="yes" name="QXXOKDSK"/>
      <point x="240" y="696" name="SRHBXOJX"/>
      <point x="47" y="510" name="FDUUZIDX"/>
      <point x="47" y="258" type="curve" smooth="yes" name="LVWFWUYH"/>
      <point x="47" y="-58" name="MBQAJLCS"/>
      <point x="330" y="-236" name="PSAFIGMA"/>
      <point x="674" y="-132" type="curve" name="BPEMZDQQ"/>
      <point x="674" y="-132" name="GJJGLNVQ"/>
      <point x="674" y="-132" name="UOAJPJAM"/>
    </contour>
    <contour>
      <point x="487" y="179" type="curve" name="EMOTFFFK"/>
      <point x="443" y="179" name="OYFKMIOH"/>
      <point x="415" y="212" name="DMJXAUVV"/>
      <point x="415" y="265" type="curve" smooth="yes" name="DZHUMLQS"/>
      <point x="415" y="318" name="PMKRWBNE"/>
      <point x="443" y="350" name="QXHJBGKE"/>
      <point x="487" y="350" type="curve" smooth="yes" name="LVTOXYBI"/>
      <point x="532" y="350" name="RNEWXPDQ"/>
      <point x="561" y="317" name="AMDFMIGB"/>
      <point x="561" y="265" type="curve" smooth="yes" name="VUQSOBLA"/>
      <point x="561" y="213" name="CKFLGXGA"/>
      <point x="532" y="179" name="SAURCMSP"/>
      <point x="487" y="179" type="curve" name="SAEYXHYD"/>
      <point x="487" y="179" name="ADSKUVWY"/>
      <point x="487" y="179" name="KQJHCKLW"/>
    </contour>
  </outline>
</glyph>
<glyph name="A" format="2">
  <advance width="667"/>
  <unicode hex="0041"/>
  <outline>
    <contour>
      <point x="5" y="0" type="curve" name="VSHALMGC"/>
      <point x="63" y="0" name="WSVKSJHD"/>
      <point x="123" y="0" name="PRFCIODM"/>
      <point x="181" y="0" type="curve" name="JYCGCYYN"/>
      <point x="194" y="43" name="KXFJSKKY"/>
      <point x="206" y="86" name="KLUQNRFV"/>
      <point x="219" y="129" type="curve" name="UMRJARCX"/>
      <point x="295" y="129" name="NJOBXEGL"/>
      <point x="372" y="129" name="LHQYFAME"/>
      <point x="448" y="129" type="curve" name="XUPZKIVD"/>
      <point x="461" y="86" name="ASHYXYAB"/>
      <point x="473" y="43" name="WRRUGEOT"/>
      <point x="486" y="0" type="curve" name="OXYNFWVH"/>
      <point x="544" y="0" name="GIFICFXT"/>
      <point x="604" y="0" name="NNGAJFQK"/>
      <point x="662" y="0" type="curve" name="JHBKOGTE"/>
      <point x="593" y="224" name="VGBXJRGV"/>
      <point x="522" y="456" name="HGSPTSWA"/>
      <point x="453" y="680" type="curve" name="JSDVVQLS"/>
      <point x="374" y="680" name="ZKROCOOS"/>
      <point x="293" y="680" name="BFJNYVVN"/>
      <point x="214" y="680" type="curve" name="DSLSPMIN"/>
      <point x="145" y="456" name="FEBOBFIY"/>
      <point x="74" y="224" name="YYKGVVQI"/>
    </contour>
    <contour>
      <point x="263" y="278" type="curve" name="DKNCFITY"/>
      <point x="286" y="357" name="WIIRQLBW"/>
      <point x="311" y="437" name="LBPCAXFS"/>
      <point x="334" y="516" type="curve" name="OHLZNRVZ"/>
      <point x="357" y="437" name="HEMNQQMC"/>
      <point x="381" y="357" name="FJGHROUE"/>
      <point x="404" y="278" type="curve" name="LUQYXVRA"/>
      <point x="357" y="278" name="WQNSCEAO"/>
      <point x="310" y="278" name="DUARTBAJ"/>
    </contour>
  </outline>
</glyph>
<glyph name="E" format="2">
  <advance width="528"/>
  <unicode hex="0045"/>
  <outline>
    <contour>
      <point x="65" y="0" type="curve" name="UKGGMFDY"/>
      <point x="200" y="0" name="NPPVOJKJ"/>
      <point x="338" y="0" name="FPJDRGEE"/>
      <point x="473" y="0" type="curve" name="SRHEPAKV"/>
      <point x="473" y="51" name="ULTCNFKI"/>
      <point x="473" y="105" name="CKKAPEUZ"/>
      <point x="473" y="156" type="curve" name="QYJRGIHG"/>
      <point x="396" y="156" name="DELZIHAM"/>
      <point x="317" y="156" name="RMYHXQYC"/>
      <point x="240" y="156" type="curve" name="HCYUJINQ"/>
      <point x="240" y="195" name="SQBXIOMK"/>
      <point x="240" y="235" name="RQZYLUQU"/>
      <point x="240" y="274" type="curve" name="ITMGMGSL"/>
      <point x="310" y="274" name="VVYVJIFY"/>
      <point x="383" y="274" name="QMEQBYZS"/>
      <point x="453" y="274" type="curve" name="CAWJWFLK"/>
      <point x="453" y="324" name="YAQQAFUM"/>
      <point x="453" y="375" name="JLUOGTVC"/>
      <point x="453" y="425" type="curve" name="HTVCMYHI"/>
      <point x="383" y="425" name="ZWPOWAJW"/>
      <point x="310" y="425" name="CPZOIMOJ"/>
      <point x="240" y="425" type="curve" name="OUSIYIMI"/>
      <point x="240" y="458" name="NVUQNPCA"/>
      <point x="240" y="491" name="DRWSJXPI"/>
      <point x="240" y="524" type="curve" name="EOIHMBHU"/>
      <point x="317" y="524" name="MSAUUBPO"/>
      <point x="396" y="524" name="CUDUWQVK"/>
      <point x="473" y="524" type="curve" name="DKLCXPWU"/>
      <point x="473" y="575" name="JFYRTTQK"/>
      <point x="473" y="629" name="AUJCCIWT"/>
      <point x="473" y="680" type="curve" name="XTRCCSPD"/>
      <point x="338" y="680" name="QNVKMRXH"/>
      <point x="200" y="680" name="XCGBFNPI"/>
      <point x="65" y="680" type="curve" name="SVNLFKYC"/>
      <point x="65" y="456" name="FKKRMJYU"/>
      <point x="65" y="224" name="BZACQLIQ"/>
    </contour>
  </outline>
</glyph>
<glyph name="F" format="2">
  <advance width="518"/>
  <unicode hex="0046"/>
  <outline>
    <contour>
      <point x="65" y="0" type="curve" name="FXRIPEMK"/>
      <point x="123" y="0" name="VLGQNGRP"/>
      <point x="182" y="0" name="FCNDBTQS"/>
      <point x="240" y="0" type="curve" name="JFBXQMZX"/>
      <point x="240" y="83" name="GZQKMEJK"/>
      <point x="240" y="169" name="TCLSNDXY"/>
      <point x="240" y="252" type="curve" name="ZWDUHPXJ"/>
      <point x="310" y="252" name="CLBRSVSG"/>
      <point x="383" y="252" name="SJCHWJQK"/>
      <point x="453" y="252" type="curve" name="KLEYNLSW"/>
      <point x="453" y="302" name="UFCROLTU"/>
      <point x="453" y="353" name="ZXUEKVQB"/>
      <point x="453" y="403" type="curve" name="UWFEVBYG"/>
      <point x="383" y="403" name="DSEPKFLX"/>
      <point x="310" y="403" name="IXEFNRAI"/>
      <point x="240" y="403" type="curve" name="MGZGWUDH"/>
      <point x="240" y="442" name="OJRBUDBV"/>
      <point x="240" y="483" name="CXFKHKYW"/>
      <point x="240" y="522" type="curve" name="HISQWNJY"/>
      <point x="317" y="522" name="YYOCHLPH"/>
      <point x="396" y="522" name="LZZGOKOO"/>
      <point x="473" y="522" type="curve" name="SGMXMHKD"/>
      <point x="473" y="574" name="UYATJIKH"/>
      <point x="473" y="628" name="BVRJYRMH"/>
      <point x="473" y="680" type="curve" name="RZMEPEOB"/>
      <point x="338" y="680" name="AIVYAXFP"/>
      <point x="200" y="680" name="CDEWLYDO"/>
      <point x="65" y="680" type="curve" name="IRXVVCBV"/>
      <point x="65" y="456" name="RJMOEIKM"/>
      <point x="65" y="224" name="LHJLIALC"/>
    </contour>
  </outline>
</glyph>
<glyph name="J" format="2">
  <advance width="434"/>
  <unicode hex="004A"/>
  <outline>
    <contour>
      <point x="379" y="235" type="curve" name="ZXMVMQCA"/>
      <point x="379" y="382" name="GLZAABHF"/>
      <point x="379" y="533" name="QWHOKKGZ"/>
      <point x="379" y="680" type="curve" name="QEUQHDLT"/>
      <point x="321" y="680" name="EKVVQPVR"/>
      <point x="262" y="680" name="CIOBYSNI"/>
      <point x="204" y="680" type="curve" name="NUKBZNDG"/>
      <point x="204" y="533" name="CLCNUUAU"/>
      <point x="204" y="382" name="LAYNWHGY"/>
      <point x="204" y="235" type="curve" smooth="yes" name="FEISQJPT"/>
      <point x="204" y="152" name="HDYKPIDK"/>
      <point x="148" y="135" name="OMLUPVLQ"/>
      <point x="20" y="171" type="curve" name="FKMIBNMT"/>
      <point x="20" y="116" name="WDZMNQDD"/>
      <point x="20" y="60" name="IZGGZYVO"/>
      <point x="20" y="5" type="curve" name="HUDZUTOO"/>
      <point x="280" y="-55" name="BXOEXDVC"/>
      <point x="379" y="51" name="XWJHHUPF"/>
      <point x="379" y="235" type="curve" name="ANCCLVXA"/>
      <point x="379" y="235" name="UTGJZYPN"/>
      <point x="379" y="235" name="SXPMHDRZ"/>
    </contour>
  </outline>
</glyph>
<glyph name="K" format="2">
  <advance width="645"/>
  <unicode hex="004B"/>
  <outline>
    <contour>
      <point x="65" y="0" type="curve" name="UAIGILXV"/>
      <point x="123" y="0" name="YVBKUOSO"/>
      <point x="182" y="0" name="VAWQWQWZ"/>
      <point x="240" y="0" type="curve" name="ZXZIHMEH"/>
      <point x="240" y="94" name="LONDLLWA"/>
      <point x="240" y="190" name="EDKSFRZN"/>
      <point x="240" y="284" type="curve" name="LRQHAWYC"/>
      <point x="308" y="190" name="WIDKCPWJ"/>
      <point x="378" y="94" name="YMLBPACX"/>
      <point x="446" y="0" type="curve" name="TKHLPUOL"/>
      <point x="515" y="0" name="FOMAJGVF"/>
      <point x="586" y="0" name="QEVMSJSM"/>
      <point x="655" y="0" type="curve" name="MQCTQWXR"/>
      <point x="567" y="118" name="IWWDSIHV"/>
      <point x="476" y="239" name="ZTJYLJNY"/>
      <point x="388" y="357" type="curve" name="HVVCRDJM"/>
      <point x="472" y="464" name="XWTNTPUN"/>
      <point x="559" y="573" name="JURUULAW"/>
      <point x="643" y="680" type="curve" name="XZNCWVSG"/>
      <point x="578" y="680" name="TZUMCIOY"/>
      <point x="510" y="680" name="QDUQLMPV"/>
      <point x="445" y="680" type="curve" name="BVSAZEWL"/>
      <point x="377" y="593" name="YJLIXMKZ"/>
      <point x="308" y="504" name="NCYXOZCO"/>
      <point x="240" y="417" type="curve" name="TJYHTKSX"/>
      <point x="240" y="504" name="BZDHSNRR"/>
      <point x="240" y="593" name="UBKUYKGF"/>
      <point x="240" y="680" type="curve" name="PGWDZBPB"/>
      <point x="182" y="680" name="XQWSGRKJ"/>
      <point x="123" y="680" name="BUNFGAAV"/>
      <point x="65" y="680" type="curve" name="YCISUSSL"/>
      <point x="65" y="456" name="QGTYSOYQ"/>
      <point x="65" y="224" name="KQRSJCGJ"/>
    </contour>
  </outline>
</glyph>
<glyph name="L" format="2">
  <advance width="483"/>
  <unicode hex="004C"/>
  <outline>
    <contour>
      <point x="65" y="0" type="curve" name="HQOKOIJC"/>
      <point x="193" y="0" name="RLODJKRU"/>
      <point x="325" y="0" name="DLYQYVSE"/>
      <point x="453" y="0" type="curve" name="CUEHESHT"/>
      <point x="453" y="52" name="VICSRKVF"/>
      <point x="453" y="107" name="XCTCKCEA"/>
      <point x="453" y="159" type="curve" name="ULTDPKJN"/>
      <point x="383" y="159" name="ILEWPPPC"/>
      <point x="310" y="159" name="WISTFUTH"/>
      <point x="240" y="159" type="curve" name="AZBZGAGY"/>
      <point x="240" y="331" name="WBEZHRCT"/>
      <point x="240" y="508" name="YBNZWJNT"/>
      <point x="240" y="680" type="curve" name="TNHMNEGB"/>
      <point x="182" y="680" name="JBEFGMXP"/>
      <point x="123" y="680" name="POISMJAE"/>
      <point x="65" y="680" type="curve" name="AQEMPQDA"/>
      <point x="65" y="456" name="NAOCNVYL"/>
      <point x="65" y="224" name="WBNXIRVU"/>
    </contour>
  </outline>
</glyph>
<glyph name="M" format="2">
  <advance width="858"/>
  <unicode hex="004D"/>
  <outline>
    <contour>
      <point x="65" y="0" type="curve" name="BOOKXVDR"/>
      <point x="119" y="0" name="RINSULMV"/>
      <point x="176" y="0" name="ADGNOOMA"/>
      <point x="230" y="0" type="curve" name="DRTIQELQ"/>
      <point x="230" y="149" name="PXEQXJAJ"/>
      <point x="230" y="304" name="XSJSXXBL"/>
      <point x="230" y="453" type="curve" name="XQLDROSR"/>
      <point x="270" y="304" name="LORAMROV"/>
      <point x="310" y="149" name="SULWVXUF"/>
      <point x="350" y="0" type="curve" name="HZYZBQSF"/>
      <point x="400" y="0" name="BVBAZBJN"/>
      <point x="452" y="0" name="YXUABXOK"/>
      <point x="502" y="0" type="curve" name="UANSCUBU"/>
      <point x="542" y="152" name="QZTDNYDK"/>
      <point x="584" y="309" name="UBNINCKR"/>
      <point x="624" y="461" type="curve" name="NAUVEOPK"/>
      <point x="624" y="309" name="IWVKMRHV"/>
      <point x="624" y="152" name="MGATCVKS"/>
      <point x="624" y="0" type="curve" name="YKCOTFEZ"/>
      <point x="680" y="0" name="HYVKMVGT"/>
      <point x="737" y="0" name="DQQKNBAE"/>
      <point x="793" y="0" type="curve" name="FMXZLKFI"/>
      <point x="792" y="224" name="HBNILHZX"/>
      <point x="790" y="456" name="EXOJRZCR"/>
      <point x="789" y="680" type="curve" name="WWMKRYCJ"/>
      <point x="707" y="680" name="CLWJRKMA"/>
      <point x="624" y="680" name="QZFEISOS"/>
      <point x="542" y="680" type="curve" name="ZGMDLYSD"/>
      <point x="505" y="544" name="YFBNUIPQ"/>
      <point x="466" y="403" name="BSKUSTUT"/>
      <point x="429" y="267" type="curve" name="NNQQHHBW"/>
      <point x="391" y="403" name="KIHEDVKN"/>
      <point x="353" y="544" name="DNDPUFNZ"/>
      <point x="315" y="680" type="curve" name="CSHWKAPP"/>
      <point x="232" y="680" name="NLSXNRYI"/>
      <point x="148" y="680" name="TQMATFNJ"/>
      <point x="65" y="680" type="curve" name="VUPKEFGF"/>
      <point x="65" y="456" name="QQRXJJNX"/>
      <point x="65" y="224" name="EVBPWRWT"/>
    </contour>
  </outline>
</glyph>
<glyph name="Q" format="2">
  <advance width="730"/>
  <unicode hex="0051"/>
  <outline>
    <contour>
      <point x="365" y="-16" type="curve" name="WHUFLSLG"/>
      <point x="396" y="-16" name="RIFDZTSY"/>
      <point x="425" y="-12" name="VUVDZVKF"/>
      <point x="453" y="-5" type="curve" name="ZSCQMIZE"/>
      <point x="473" y="-38" name="BRMNZCVG"/>
      <point x="494" y="-73" name="LNFPLYMP"/>
      <point x="514" y="-106" type="curve" name="BHMGTLSN"/>
      <point x="559" y="-79" name="GWHPNSAQ"/>
      <point x="606" y="-51" name="JIIIOWGQ"/>
      <point x="651" y="-24" type="curve" name="NOUTOGDY"/>
      <point x="632" y="7" name="LTSIJREZ"/>
      <point x="612" y="40" name="ZDTAYGZZ"/>
      <point x="593" y="71" type="curve" name="EYHUMEPX"/>
      <point x="661" y="135" name="YVLFVNLV"/>
      <point x="702" y="230" name="GSETSLAQ"/>
      <point x="702" y="341" type="curve" smooth="yes" name="QGQGHLHC"/>
      <point x="702" y="546" name="QSLUYEWA"/>
      <point x="560" y="696" name="NSYMEEDF"/>
      <point x="365" y="696" type="curve" smooth="yes" name="JRKSECLX"/>
      <point x="169" y="696" name="AOSKWSFY"/>
      <point x="28" y="546" name="ERUGRGUC"/>
      <point x="28" y="341" type="curve" smooth="yes" name="ZZJZMBAS"/>
      <point x="28" y="135" name="AJBDWUNW"/>
      <point x="169" y="-16" name="ZTUSKKCS"/>
      <point x="365" y="-16" type="curve" name="GDSAIPAM"/>
      <point x="365" y="-16" name="QJRBRIQD"/>
      <point x="365" y="-16" name="RJLGUYXI"/>
    </contour>
    <contour>
      <point x="207" y="341" type="curve" name="FHOGRARQ"/>
      <point x="207" y="457" name="NLBNIUWU"/>
      <point x="268" y="534" name="PCZIDHXG"/>
      <point x="365" y="534" type="curve" smooth="yes" name="YTTCLHHJ"/>
      <point x="462" y="534" name="HMZEXCNK"/>
      <point x="523" y="456" name="QHRBCTVA"/>
      <point x="523" y="341" type="curve" smooth="yes" name="YTBICXCH"/>
      <point x="523" y="297" name="UZUJLHEO"/>
      <point x="514" y="258" name="UDNZAWGS"/>
      <point x="498" y="227" type="curve" name="CCBBUWZL"/>
      <point x="477" y="261" name="WRSZXOKD"/>
      <point x="456" y="296" name="NWQQLVKY"/>
      <point x="435" y="330" type="curve" name="WOOCPWXX"/>
      <point x="390" y="303" name="VLTZNYIH"/>
      <point x="343" y="275" name="MYWCEJTF"/>
      <point x="298" y="248" type="curve" name="AFBDITCH"/>
      <point x="319" y="214" name="HREOLVON"/>
      <point x="340" y="179" name="XKNKHLKR"/>
      <point x="361" y="145" type="curve" name="ICSOZZFE"/>
      <point x="266" y="147" name="LDCKWOHE"/>
      <point x="207" y="226" name="WCKIXFCV"/>
      <point x="207" y="341" type="curve" name="QMEIOZJE"/>
      <point x="207" y="341" name="YAORJTHO"/>
      <point x="207" y="341" name="ELILLWYM"/>
    </contour>
  </outline>
</glyph>
<glyph name="S" format="2">
  <advance width="538"/>
  <unicode hex="0053"/>
  <outline>
    <contour>
      <point x="512" y="205" type="curve" name="GOWVFSLC"/>
      <point x="512" y="437" name="GPZJYNUP"/>
      <point x="220" y="399" name="FIJXTQNX"/>
      <point x="220" y="481" type="curve" smooth="yes" name="QKUZEHLZ"/>
      <point x="220" y="536" name="IAQRQFHB"/>
      <point x="337" y="550" name="NNGZXVNX"/>
      <point x="477" y="491" type="curve" name="FRTKKMRA"/>
      <point x="477" y="548" name="BRGCYBOJ"/>
      <point x="477" y="606" name="BJQKDUAF"/>
      <point x="477" y="663" type="curve" name="QXXCDWXQ"/>
      <point x="252" y="728" name="QUSBXJEZ"/>
      <point x="41" y="659" name="LGUZMNBL"/>
      <point x="41" y="477" type="curve" smooth="yes" name="OSAHABYC"/>
      <point x="41" y="255" name="OEDCLVPP"/>
      <point x="333" y="290" name="XVFXUYBZ"/>
      <point x="333" y="205" type="curve" smooth="yes" name="ZZYAMNDR"/>
      <point x="333" y="145" name="FNSAGJTQ"/>
      <point x="207" y="135" name="WAXVUVCM"/>
      <point x="51" y="192" type="curve" name="BOJSUZJZ"/>
      <point x="51" y="135" name="FHVZRCLO"/>
      <point x="51" y="77" name="USEJHYVF"/>
      <point x="51" y="20" type="curve" name="QMIITOAI"/>
      <point x="277" y="-42" name="FIARMZOO"/>
      <point x="512" y="1" name="MWQUBNKO"/>
      <point x="512" y="205" type="curve" name="YDWHJJCK"/>
      <point x="512" y="205" name="LDKAOGPU"/>
      <point x="512" y="205" name="TTUTSSFK"/>
    </contour>
  </outline>
</glyph>
<glyph name="Y" format="2">
  <advance width="599"/>
  <unicode hex="0059"/>
  <outline>
    <contour>
      <point x="212" y="0" type="curve" name="SCGBRCMS"/>
      <point x="270" y="0" name="YLGFSUXV"/>
      <point x="329" y="0" name="FVIAVQBM"/>
      <point x="387" y="0" type="curve" name="LRFKCAOG"/>
      <point x="387" y="81" name="KLIXAOJV"/>
      <point x="387" y="165" name="DQHJLBJE"/>
      <point x="387" y="246" type="curve" name="HIATPYWL"/>
      <point x="458" y="389" name="QONQWLHJ"/>
      <point x="532" y="537" name="XQMCWPYF"/>
      <point x="603" y="680" type="curve" name="DICGGLPP"/>
      <point x="542" y="680" name="RDYUGUUQ"/>
      <point x="480" y="680" name="KMMXHLKA"/>
      <point x="419" y="680" type="curve" name="XHYHXNJI"/>
      <point x="380" y="599" name="EYNCIHAE"/>
      <point x="340" y="516" name="QMIOTHQO"/>
      <point x="301" y="435" type="curve" name="KVGODOBU"/>
      <point x="262" y="516" name="FCPQZFXO"/>
      <point x="221" y="599" name="YWNJPCRF"/>
      <point x="182" y="680" type="curve" name="HHITBCMU"/>
      <point x="121" y="680" name="QVNOVLEY"/>
      <point x="57" y="680" name="LTXOMAVQ"/>
      <point x="-4" y="680" type="curve" name="JXCUHPKZ"/>
      <point x="67" y="537" name="UZDAPOOT"/>
      <point x="141" y="389" name="DHNFGOJH"/>
      <point x="212" y="246" type="curve" name="KLXRMITD"/>
      <point x="212" y="165" name="EISEASZW"/>
      <point x="212" y="81" name="ILWEPGQE"/>
    </contour>
  </outline>
</glyph>
<glyph name="Z" format="2">
  <advance width="585"/>
  <unicode hex="005A"/>
  <outline>
    <contour>
      <point x="50" y="0" type="curve" name="KEIJZQBM"/>
      <point x="210" y="0" name="KVJJPDWE"/>
      <point x="375" y="0" name="DUQXEVIA"/>
      <point x="535" y="0" type="curve" name="FBHEFION"/>
      <point x="535" y="51" name="LXHYFDLG"/>
      <point x="535" y="103" name="BHZIRUOO"/>
      <point x="535" y="154" type="curve" name="YHZLCTBD"/>
      <point x="443" y="154" name="PESRBLMW"/>
      <point x="347" y="154" name="YKEQJOKF"/>
      <point x="255" y="154" type="curve" name="BPCIKRVW"/>
      <point x="347" y="277" name="FXNYUUBP"/>
      <point x="443" y="403" name="JQSHHPMC"/>
      <point x="535" y="526" type="curve" name="MGRADZPB"/>
      <point x="535" y="577" name="BOQRIJIQ"/>
      <point x="535" y="629" name="GGZFWLYJ"/>
      <point x="535" y="680" type="curve" name="SDUKXMSW"/>
      <point x="375" y="680" name="SLENFYAP"/>
      <point x="210" y="680" name="PJFTZHRU"/>
      <point x="50" y="680" type="curve" name="UFIEEMCM"/>
      <point x="50" y="629" name="HJXBPESF"/>
      <point x="50" y="577" name="UOCVBKAO"/>
      <point x="50" y="526" type="curve" name="UOHCLYSN"/>
      <point x="142" y="526" name="BXBDZHWQ"/>
      <point x="238" y="526" name="NORWPOQY"/>
      <point x="330" y="526" type="curve" name="DHWBFQLS"/>
      <point x="238" y="403" name="ALHRMKXG"/>
      <point x="142" y="277" name="SFEUYXQB"/>
      <point x="50" y="154" type="curve" name="HGVYCXVN"/>
      <point x="50" y="103" name="XVDBVDMU"/>
      <point x="50" y="51" name="HCPEXEDQ"/>
    </contour>
  </outline>
</glyph>
<glyph name="bracketleft" format="2">
  <advance width="445"/>
  <unicode hex="005B"/>
  <outline>
    <contour>
      <point x="75" y="-160" type="curve" name="HEHCWJZH"/>
      <point x="184" y="-160" name="AUVEMZUR"/>
      <point x="296" y="-160" name="AKZWOXBK"/>
      <point x="405" y="-160" type="curve" name="GGZBOWBX"/>
      <point x="405" y="-112" name="ULGAVJHH"/>
      <point x="405" y="-63" name="RWGEHFFZ"/>
      <point x="405" y="-15" type="curve" name="ZZYTQRFH"/>
      <point x="351" y="-15" name="EEMPTALZ"/>
      <point x="294" y="-15" name="PRWQDEUO"/>
      <point x="240" y="-15" type="curve" name="RXAJCXZM"/>
      <point x="240" y="196" name="FSLWZQRP"/>
      <point x="240" y="414" name="TKELRGSS"/>
      <point x="240" y="625" type="curve" name="FMQYZHAU"/>
      <point x="294" y="625" name="XKFSGKQB"/>
      <point x="351" y="625" name="HZUWNJFK"/>
      <point x="405" y="625" type="curve" name="OSTCKUQS"/>
      <point x="405" y="673" name="YIHYGWMA"/>
      <point x="405" y="722" name="AMDYOCUV"/>
      <point x="405" y="770" type="curve" name="JFMCIEOL"/>
      <point x="296" y="770" name="NXEBBHCZ"/>
      <point x="184" y="770" name="MENLSWPU"/>
      <point x="75" y="770" type="curve" name="NXVHDFKM"/>
      <point x="75" y="463" name="IMAAIKBD"/>
      <point x="75" y="147" name="JTULOFKD"/>
    </contour>
  </outline>
</glyph>
<glyph name="backslash" format="2">
  <advance width="490"/>
  <unicode hex="005C"/>
  <outline>
    <contour>
      <point x="485" y="-160" type="curve" name="QXIWTKHO"/>
      <point x="386" y="147" name="XYXPOLDW"/>
      <point x="284" y="463" name="TRGPZGBD"/>
      <point x="185" y="770" type="curve" name="PJTBOMCC"/>
      <point x="131" y="770" name="SPNQKQAQ"/>
      <point x="74" y="770" name="GSGRLACX"/>
      <point x="20" y="770" type="curve" name="BEKEQUNS"/>
      <point x="119" y="463" name="URNGRPJI"/>
      <point x="221" y="147" name="ZNZOLOUT"/>
      <point x="320" y="-160" type="curve" name="PHPQQOEG"/>
      <point x="374" y="-160" name="KUJNIPET"/>
      <point x="431" y="-160" name="TSVTAHGV"/>
    </contour>
  </outline>
</glyph>
<glyph name="grave" format="2">
  <advance width="408"/>
  <unicode hex="0060"/>
  <anchor x="0" y="517" name="top"/>
  <anchor x="254" y="517" name="center"/>
  <outline>
    <contour>
      <point x="338" y="584" type="curve" name="QKLOQYYS"/>
      <point x="302" y="649" name="EKMJABDY"/>
      <point x="265" y="715" name="ONUFSLSF"/>
      <point x="229" y="780" type="curve" name="QPUOPUTP"/>
      <point x="170" y="780" name="WVCSZZSQ"/>
      <point x="109" y="780" name="STXECLNL"/>
      <point x="50" y="780" type="curve" name="ZSEZFOQR"/>
      <point x="94" y="715" name="WZKTZVJM"/>
      <point x="140" y="649" name="KDAEIIAP"/>
      <point x="184" y="584" type="curve" name="EJOKDFUQ"/>
      <point x="235" y="584" name="YQSBGQFD"/>
      <point x="287" y="584" name="DBAEONDD"/>
    </contour>
  </outline>
</glyph>
<glyph name="c" format="2">
  <advance width="476"/>
  <unicode hex="0063"/>
  <anchor x="278" y="517" name="center"/>
  <outline>
    <contour>
      <point x="27" y="259" type="curve" name="EPQFVJIZ"/>
      <point x="27" y="57" name="WAAHPQRF"/>
      <point x="206" y="-59" name="BMXNVCCD"/>
      <point x="428" y="8" type="curve" name="FOMLLZOJ"/>
      <point x="428" y="59" name="IABOODES"/>
      <point x="428" y="111" name="MMQBQQYL"/>
      <point x="428" y="162" type="curve" name="RTGNZYVD"/>
      <point x="312" y="107" name="UXOYTINX"/>
      <point x="196" y="139" name="FKGNLWRW"/>
      <point x="196" y="259" type="curve" smooth="yes" name="HIYOKGOK"/>
      <point x="196" y="379" name="MSUHOPNA"/>
      <point x="312" y="411" name="MINOEOIV"/>
      <point x="428" y="356" type="curve" name="JCBWDAYF"/>
      <point x="428" y="407" name="HVGHDQKB"/>
      <point x="428" y="459" name="IJTBXVWZ"/>
      <point x="428" y="510" type="curve" name="HHFPJXMX"/>
      <point x="206" y="577" name="EUTLPUUF"/>
      <point x="27" y="461" name="ISIMHXKG"/>
      <point x="27" y="259" type="curve" name="UHBWIUNB"/>
      <point x="27" y="259" name="YOYQPWZN"/>
      <point x="27" y="259" name="GIFNJQZQ"/>
    </contour>
  </outline>
</glyph>
<glyph name="d" format="2">
  <advance width="620"/>
  <unicode hex="0064"/>
  <outline>
    <contour>
      <point x="400" y="0" type="curve" name="JPLZAQBK"/>
      <point x="454" y="0" name="XWJUGUBR"/>
      <point x="511" y="0" name="VUUGBRAL"/>
      <point x="565" y="0" type="curve" name="TLTLJBWP"/>
      <point x="565" y="241" name="SGCFWHJZ"/>
      <point x="565" y="489" name="PPBBWWPU"/>
      <point x="565" y="730" type="curve" name="ZAXEVAEH"/>
      <point x="511" y="730" name="WZTWSEDC"/>
      <point x="454" y="730" name="LVYOWEZF"/>
      <point x="400" y="730" type="curve" name="NIRRAITA"/>
      <point x="400" y="650" name="ZZYPVKKK"/>
      <point x="400" y="568" name="LOIBZGYK"/>
      <point x="400" y="488" type="curve" name="XCPETSMO"/>
      <point x="367" y="515" name="OJGCFMIM"/>
      <point x="323" y="531" name="PXKWYPQG"/>
      <point x="275" y="531" type="curve" smooth="yes" name="DOZMDNPR"/>
      <point x="141" y="531" name="KOCQUWYU"/>
      <point x="27" y="421" name="DXHSMSLT"/>
      <point x="27" y="259" type="curve" smooth="yes" name="LNQRSMOX"/>
      <point x="27" y="99" name="ALZGCXEE"/>
      <point x="141" y="-14" name="OZXALZYN"/>
      <point x="276" y="-14" type="curve" smooth="yes" name="NTVXWLGC"/>
      <point x="324" y="-14" name="ZJMQAHOC"/>
      <point x="367" y="2" name="HQZJFZQZ"/>
      <point x="400" y="30" type="curve" name="JIFBIWLS"/>
      <point x="400" y="20" name="DOQSFTVJ"/>
      <point x="400" y="10" name="MSHHYFCF"/>
    </contour>
    <contour>
      <point x="298" y="132" type="curve" name="YOTHZWEE"/>
      <point x="233" y="132" name="PALLLTKT"/>
      <point x="192" y="182" name="IVAUMXNQ"/>
      <point x="192" y="259" type="curve" smooth="yes" name="VEQBDXVD"/>
      <point x="192" y="336" name="FYQFXNZH"/>
      <point x="233" y="385" name="HIYSYHCY"/>
      <point x="298" y="385" type="curve" smooth="yes" name="KESCXYTS"/>
      <point x="362" y="385" name="LRVHJAJL"/>
      <point x="404" y="335" name="UYOIASKM"/>
      <point x="404" y="259" type="curve" smooth="yes" name="FJLTYLNN"/>
      <point x="404" y="183" name="CYISNVMB"/>
      <point x="362" y="132" name="JPUKRIPH"/>
      <point x="298" y="132" type="curve" name="CMCSSMYX"/>
      <point x="298" y="132" name="JETAQOTN"/>
      <point x="298" y="132" name="VFPWJUGQ"/>
    </contour>
  </outline>
</glyph>
<glyph name="e" format="2">
  <advance width="563"/>
  <unicode hex="0065"/>
  <anchor x="0" y="527" name="top"/>
  <anchor x="292" y="517" name="center"/>
  <outline>
    <contour>
      <point x="500" y="24" type="curve" name="WXICIDNB"/>
      <point x="500" y="71" name="BCLKIMJG"/>
      <point x="500" y="119" name="JCLZWRAB"/>
      <point x="500" y="166" type="curve" name="HOJFQFTZ"/>
      <point x="359" y="113" name="NHPZMMVH"/>
      <point x="237" y="122" name="KSHHUQBF"/>
      <point x="199" y="198" type="curve" name="CMEFVMPR"/>
      <point x="308" y="198" name="KUMCYBZQ"/>
      <point x="420" y="198" name="KMRBBOWY"/>
      <point x="529" y="198" type="curve" name="HGFWWJRO"/>
      <point x="564" y="383" name="FBBPDPFQ"/>
      <point x="466" y="533" name="RZKXRGSL"/>
      <point x="294" y="533" type="curve" smooth="yes" name="VPQYWHDU"/>
      <point x="139" y="533" name="GXPJHYNM"/>
      <point x="27" y="415" name="EUYLMSOR"/>
      <point x="27" y="259" type="curve" smooth="yes" name="VQQSUTLZ"/>
      <point x="27" y="21" name="WIODBZYU"/>
      <point x="270" y="-74" name="YCFFYAGN"/>
      <point x="500" y="24" type="curve" name="JHBGRMMR"/>
      <point x="500" y="24" name="PNQPBLSD"/>
      <point x="500" y="24" name="QLIUZSAP"/>
    </contour>
    <contour>
      <point x="290" y="385" type="curve" name="ZJQCCAFU"/>
      <point x="331" y="385" name="BVFGEYSU"/>
      <point x="364" y="365" name="DNMENWDN"/>
      <point x="380" y="320" type="curve" name="LKMPQPDQ"/>
      <point x="320" y="320" name="HVYFPOMF"/>
      <point x="259" y="320" name="CVRGQQIT"/>
      <point x="199" y="320" type="curve" name="BXYFRVWD"/>
      <point x="216" y="364" name="SHZQODYG"/>
      <point x="251" y="385" name="FHUHALNP"/>
      <point x="290" y="385" type="curve" name="SZAJLAMG"/>
      <point x="290" y="385" name="UVNIVKJZ"/>
      <point x="290" y="385" name="CZXPGABP"/>
    </contour>
  </outline>
</glyph>
<glyph name="f" format="2">
  <advance width="428"/>
  <unicode hex="0066"/>
  <outline>
    <contour>
      <point x="28" y="369" type="curve" name="UOTRHDWQ"/>
      <point x="55" y="369" name="GWFKTQVX"/>
      <point x="82" y="369" name="WHQIWZHS"/>
      <point x="109" y="369" type="curve" name="SXQCYSGO"/>
      <point x="109" y="247" name="AMCEBCQT"/>
      <point x="109" y="122" name="IKTUTIIE"/>
      <point x="109" y="0" type="curve" name="TXJBOCDK"/>
      <point x="163" y="0" name="VSOEASTU"/>
      <point x="220" y="0" name="EMKNEKYH"/>
      <point x="274" y="0" type="curve" name="EMFIZJMS"/>
      <point x="274" y="122" name="ACTKEGQS"/>
      <point x="274" y="247" name="VLNXWXRD"/>
      <point x="274" y="369" type="curve" name="GBIMKFME"/>
      <point x="315" y="369" name="CKWQMQEZ"/>
      <point x="357" y="369" name="KJAHJLFY"/>
      <point x="398" y="369" type="curve" name="LBBIFENU"/>
      <point x="398" y="418" name="VUXGEMRL"/>
      <point x="398" y="468" name="RPOCPBTM"/>
      <point x="398" y="517" type="curve" name="VGELWJDK"/>
      <point x="357" y="517" name="MFBENNJN"/>
      <point x="315" y="517" name="UUTHJRAG"/>
      <point x="274" y="517" type="curve" name="JOLQFQXM"/>
      <point x="274" y="522" name="NNIYCUGB"/>
      <point x="274" y="528" name="ERSKQPWG"/>
      <point x="274" y="533" type="curve" smooth="yes" name="SZNPJPWB"/>
      <point x="274" y="586" name="LRQIDHIS"/>
      <point x="338" y="604" name="JWAERIVP"/>
      <point x="418" y="577" type="curve" name="WRRQRCFW"/>
      <point x="418" y="627" name="AJYAVMSE"/>
      <point x="418" y="680" name="DMELYFAO"/>
      <point x="418" y="730" type="curve" name="XMOCLZZA"/>
      <point x="275" y="777" name="YJJCBJYA"/>
      <point x="109" y="712" name="MRMJAWKM"/>
      <point x="109" y="534" type="curve" smooth="yes" name="VLUEYQRV"/>
      <point x="109" y="528" name="HPHWJUSZ"/>
      <point x="109" y="523" name="MAVJMMXH"/>
      <point x="109" y="517" type="curve" name="YBEQSVIM"/>
      <point x="82" y="517" name="RCJWNWDR"/>
      <point x="55" y="517" name="NWOHTYXT"/>
      <point x="28" y="517" type="curve" name="EAIIOZHN"/>
      <point x="28" y="468" name="DMUHHBTB"/>
      <point x="28" y="418" name="PJNTSDPS"/>
    </contour>
  </outline>
</glyph>
<glyph name="i" format="2">
  <advance width="281"/>
  <unicode hex="0069"/>
  <outline>
    <contour>
      <point x="141" y="576" type="curve" name="EORTHLMT"/>
      <point x="197" y="576" name="EVWNVOMG"/>
      <point x="244" y="622" name="MEVSEGWQ"/>
      <point x="244" y="678" type="curve" smooth="yes" name="CPEHEUPM"/>
      <point x="244" y="733" name="EDIZPBUH"/>
      <point x="197" y="779" name="XAYCUERG"/>
      <point x="141" y="779" type="curve" smooth="yes" name="YXOIDRHZ"/>
      <point x="83" y="779" name="ZZXTBODZ"/>
      <point x="37" y="733" name="TGCQBOPY"/>
      <point x="37" y="678" type="curve" smooth="yes" name="KFIZCLYG"/>
      <point x="37" y="622" name="KBRCEJDG"/>
      <point x="83" y="576" name="WRPWNNGS"/>
      <point x="141" y="576" type="curve" name="WINLDFYY"/>
      <point x="141" y="576" name="FIWYGBKH"/>
      <point x="141" y="576" name="GIZVWOQL"/>
    </contour>
    <contour>
      <point x="58" y="0" type="curve" name="SDTEZHUF"/>
      <point x="112" y="0" name="YFTCVRCK"/>
      <point x="169" y="0" name="NIQDWMOU"/>
      <point x="223" y="0" type="curve" name="NANFPBJG"/>
      <point x="223" y="171" name="AMUCLZXQ"/>
      <point x="223" y="346" name="CKAABMEO"/>
      <point x="223" y="517" type="curve" name="BOLSPHDY"/>
      <point x="169" y="517" name="YIPXIPTF"/>
      <point x="112" y="517" name="TTREWCBW"/>
      <point x="58" y="517" type="curve" name="GRFAHYSX"/>
      <point x="58" y="346" name="EIRDFQMH"/>
      <point x="58" y="171" name="LYJHVYCU"/>
    </contour>
  </outline>
</glyph>
<glyph name="n" format="2">
  <advance width="593"/>
  <unicode hex="006E"/>
  <anchor x="290" y="517" name="center"/>
  <outline>
    <contour>
      <point x="55" y="0" type="curve" name="DKCZGIWM"/>
      <point x="109" y="0" name="PDFBQWQU"/>
      <point x="166" y="0" name="TIQUOMAB"/>
      <point x="220" y="0" type="curve" name="QWRIFOSC"/>
      <point x="220" y="96" name="ARJIATKY"/>
      <point x="220" y="196" name="UZOLNTXT"/>
      <point x="220" y="292" type="curve" smooth="yes" name="QQEZUUHZ"/>
      <point x="220" y="349" name="TWSPAFPU"/>
      <point x="251" y="381" name="JNJHDCUG"/>
      <point x="304" y="381" type="curve" smooth="yes" name="MPSTOTMY"/>
      <point x="357" y="381" name="QYEIWYKA"/>
      <point x="381" y="345" name="VKHCAXYJ"/>
      <point x="381" y="292" type="curve" smooth="yes" name="FBICQVMH"/>
      <point x="381" y="196" name="VOBLINPZ"/>
      <point x="381" y="96" name="UTACICSC"/>
      <point x="381" y="0" type="curve" name="QYLUBHCM"/>
      <point x="435" y="0" name="HQBMGZIC"/>
      <point x="492" y="0" name="MBQXZQRJ"/>
      <point x="546" y="0" type="curve" name="XGWRHRFA"/>
      <point x="546" y="104" name="ZKOHTXGO"/>
      <point x="546" y="210" name="FQGHPTOW"/>
      <point x="546" y="314" type="curve" smooth="yes" name="ICSYFZVJ"/>
      <point x="546" y="449" name="PYBCCCGZ"/>
      <point x="467" y="531" name="KQAMOUZB"/>
      <point x="353" y="531" type="curve" smooth="yes" name="SRSQVLXZ"/>
      <point x="301" y="531" name="JPWGCIRP"/>
      <point x="256" y="516" name="AHXNFRJS"/>
      <point x="220" y="491" type="curve" name="ZCXLFYUE"/>
      <point x="220" y="500" name="NEIHJXBX"/>
      <point x="220" y="508" name="ZBHBGTOV"/>
      <point x="220" y="517" type="curve" name="GLSZOSHS"/>
      <point x="166" y="517" name="TCDNCHNG"/>
      <point x="109" y="517" name="BHVJASLV"/>
      <point x="55" y="517" type="curve" name="KKIZDCTE"/>
      <point x="55" y="346" name="SPVQDDHV"/>
      <point x="55" y="171" name="DOCVMKZI"/>
    </contour>
  </outline>
</glyph>
<glyph name="q" format="2">
  <advance width="620"/>
  <unicode hex="0071"/>
  <outline>
    <contour>
      <point x="400" y="-160" type="curve" name="JZEQIUPB"/>
      <point x="454" y="-160" name="VQEFDCHK"/>
      <point x="511" y="-160" name="AIWHILTC"/>
      <point x="565" y="-160" type="curve" name="OBZGCREF"/>
      <point x="565" y="63" name="KMXUALGX"/>
      <point x="565" y="294" name="YFSQBHGK"/>
      <point x="565" y="517" type="curve" name="BWPHGHHC"/>
      <point x="511" y="517" name="QZDEQISI"/>
      <point x="454" y="517" name="DBIANBVR"/>
      <point x="400" y="517" type="curve" name="ICWOWRQC"/>
      <point x="400" y="507" name="LWWUTCLF"/>
      <point x="400" y="498" name="BRLOZBJV"/>
      <point x="400" y="488" type="curve" name="SSXBPBTI"/>
      <point x="367" y="515" name="KOOXIHUT"/>
      <point x="323" y="531" name="DOSPJELQ"/>
      <point x="275" y="531" type="curve" smooth="yes" name="YKLDYSRX"/>
      <point x="141" y="531" name="XNBJHNTN"/>
      <point x="27" y="421" name="STPLEOQY"/>
      <point x="27" y="259" type="curve" smooth="yes" name="MZFXAZTL"/>
      <point x="27" y="99" name="SZMNRRLQ"/>
      <point x="141" y="-14" name="SCTJEUEJ"/>
      <point x="276" y="-14" type="curve" smooth="yes" name="HQSNZCSO"/>
      <point x="324" y="-14" name="MQPXIMES"/>
      <point x="367" y="2" name="NWEEENUT"/>
      <point x="400" y="30" type="curve" name="NXZSZERU"/>
      <point x="400" y="-33" name="PMUBJKQH"/>
      <point x="400" y="-97" name="IXJLCHDA"/>
    </contour>
    <contour>
      <point x="298" y="132" type="curve" name="AEJBAKCS"/>
      <point x="233" y="132" name="IOHZIGNR"/>
      <point x="192" y="182" name="TKDWKZNL"/>
      <point x="192" y="259" type="curve" smooth="yes" name="OBYQCXGA"/>
      <point x="192" y="336" name="UGJVGCZF"/>
      <point x="233" y="385" name="HYCIMANU"/>
      <point x="298" y="385" type="curve" smooth="yes" name="NYQFDWUB"/>
      <point x="362" y="385" name="MMOEYOVB"/>
      <point x="404" y="335" name="VTACPUFO"/>
      <point x="404" y="259" type="curve" smooth="yes" name="VFIURVLK"/>
      <point x="404" y="183" name="DFJSWXQM"/>
      <point x="362" y="132" name="YAGAMMRH"/>
      <point x="298" y="132" type="curve" name="CPISHRSV"/>
      <point x="298" y="132" name="JIMPXSEK"/>
      <point x="298" y="132" name="DFQDHCBP"/>
    </contour>
  </outline>
</glyph>
<glyph name="r" format="2">
  <advance width="395"/>
  <unicode hex="0072"/>
  <outline>
    <contour>
      <point x="55" y="0" type="curve" name="MJYCXGVF"/>
      <point x="109" y="0" name="WPMDNPHT"/>
      <point x="166" y="0" name="JFDDKONL"/>
      <point x="220" y="0" type="curve" name="SSQLOHEA"/>
      <point x="220" y="90" name="NWRFGGVA"/>
      <point x="220" y="183" name="VYENJEAT"/>
      <point x="220" y="273" type="curve" smooth="yes" name="RULNETLO"/>
      <point x="220" y="346" name="UJFNPWCO"/>
      <point x="269" y="381" name="EZOOEGNL"/>
      <point x="375" y="366" type="curve" name="MBYNEAEN"/>
      <point x="375" y="419" name="PNZPXPPA"/>
      <point x="375" y="475" name="DRIMRWIX"/>
      <point x="375" y="528" type="curve" name="LAQHREDX"/>
      <point x="314" y="534" name="LUYKGNXW"/>
      <point x="261" y="518" name="AUPBAQNJ"/>
      <point x="220" y="489" type="curve" name="RXDFVWUV"/>
      <point x="220" y="498" name="OKHOKYBF"/>
      <point x="220" y="508" name="SQWIQMWN"/>
      <point x="220" y="517" type="curve" name="XIXXARQA"/>
      <point x="166" y="517" name="WGZNQHCJ"/>
      <point x="109" y="517" name="HMPXNXUH"/>
      <point x="55" y="517" type="curve" name="LSQRHJJU"/>
      <point x="55" y="346" name="QKIWDGCS"/>
      <point x="55" y="171" name="KMRTBBQZ"/>
    </contour>
  </outline>
</glyph>
<glyph name="s" format="2">
  <advance width="475"/>
  <unicode hex="0073"/>
  <outline>
    <contour>
      <point x="450" y="160" type="curve" name="TAEXMTFL"/>
      <point x="450" y="352" name="CYKGKVQF"/>
      <point x="207" y="310" name="AKVQSPGJ"/>
      <point x="207" y="365" type="curve" smooth="yes" name="MFYMDBLA"/>
      <point x="207" y="406" name="PGBLZIOY"/>
      <point x="308" y="408" name="XRJCHCCM"/>
      <point x="421" y="354" type="curve" name="TPEGXNSH"/>
      <point x="421" y="405" name="QWATEVCN"/>
      <point x="421" y="459" name="MUVKDNXQ"/>
      <point x="421" y="510" type="curve" name="SSGGVXOB"/>
      <point x="231" y="571" name="LSBQIANA"/>
      <point x="39" y="507" name="UTMLJAVY"/>
      <point x="39" y="357" type="curve" smooth="yes" name="ISODJJKD"/>
      <point x="39" y="170" name="QMVEVJOC"/>
      <point x="284" y="211" name="ARVDYBUD"/>
      <point x="284" y="154" type="curve" smooth="yes" name="KCSIMBGB"/>
      <point x="284" y="107" name="LIOVSIZL"/>
      <point x="160" y="115" name="UXRYFJLV"/>
      <point x="48" y="165" type="curve" name="HBAQFMKO"/>
      <point x="48" y="114" name="HHIJQLCX"/>
      <point x="48" y="60" name="OGXHTLPL"/>
      <point x="48" y="9" type="curve" name="ZUKMSFVA"/>
      <point x="246" y="-48" name="YESEPBGS"/>
      <point x="450" y="-6" name="ZDVQYTHC"/>
      <point x="450" y="160" type="curve" name="OYGDPNYB"/>
      <point x="450" y="160" name="OQNUPYCZ"/>
      <point x="450" y="160" name="EDQXGJNQ"/>
    </contour>
  </outline>
</glyph>
<glyph name="t" format="2">
  <advance width="393"/>
  <unicode hex="0074"/>
  <outline>
    <contour>
      <point x="109" y="0" type="curve" name="DNFLIAJZ"/>
      <point x="163" y="0" name="NMYIVIVK"/>
      <point x="220" y="0" name="JGEDBOKO"/>
      <point x="274" y="0" type="curve" name="RIUAPESH"/>
      <point x="274" y="122" name="VKQXFPIH"/>
      <point x="274" y="247" name="STTARAQO"/>
      <point x="274" y="369" type="curve" name="NYWHBCYO"/>
      <point x="305" y="369" name="ODVWKBSN"/>
      <point x="337" y="369" name="PZCNSMDX"/>
      <point x="368" y="369" type="curve" name="EGNGHIDL"/>
      <point x="368" y="418" name="ROVYRWED"/>
      <point x="368" y="468" name="RODMORGJ"/>
      <point x="368" y="517" type="curve" name="PWGROJQF"/>
      <point x="337" y="517" name="SXTVDIAR"/>
      <point x="305" y="517" name="WWHSTGID"/>
      <point x="274" y="517" type="curve" name="RBWUEOPT"/>
      <point x="274" y="563" name="NLCZATWS"/>
      <point x="274" y="609" name="KXZCUXWQ"/>
      <point x="274" y="655" type="curve" name="CIZJGVYW"/>
      <point x="220" y="655" name="CLPLOHES"/>
      <point x="163" y="655" name="ISZYSUGD"/>
      <point x="109" y="655" type="curve" name="SRMMJMPX"/>
      <point x="109" y="609" name="XNFCGUGS"/>
      <point x="109" y="563" name="TBHPHBIE"/>
      <point x="109" y="517" type="curve" name="AKAVYUJA"/>
      <point x="82" y="517" name="VHMMCOAG"/>
      <point x="55" y="517" name="PPQENDCV"/>
      <point x="28" y="517" type="curve" name="UZWKHFHH"/>
      <point x="28" y="468" name="CENPBZJJ"/>
      <point x="28" y="418" name="NKPHFYRB"/>
      <point x="28" y="369" type="curve" name="HQSYTWET"/>
      <point x="55" y="369" name="XZIRMDHM"/>
      <point x="82" y="369" name="UQLQJDIT"/>
      <point x="109" y="369" type="curve" name="QNHMDPBX"/>
      <point x="109" y="247" name="TDPIWMFI"/>
      <point x="109" y="122" name="SALRIJSX"/>
    </contour>
  </outline>
</glyph>
<glyph name="u" format="2">
  <advance width="593"/>
  <unicode hex="0075"/>
  <outline>
    <contour>
      <point x="538" y="517" type="curve" name="PPZTJWRN"/>
      <point x="484" y="517" name="AEVSBTEE"/>
      <point x="427" y="517" name="LNSEXQOC"/>
      <point x="373" y="517" type="curve" name="QYRROEIH"/>
      <point x="373" y="421" name="ZLPCSFCC"/>
      <point x="373" y="321" name="TGBZDAPL"/>
      <point x="373" y="225" type="curve" smooth="yes" name="GMOTZUMW"/>
      <point x="373" y="168" name="LFIABLVC"/>
      <point x="342" y="136" name="JZKJCZRG"/>
      <point x="289" y="136" type="curve" smooth="yes" name="KJJFXAZH"/>
      <point x="236" y="136" name="XIWQTPVK"/>
      <point x="212" y="172" name="UGZIBCST"/>
      <point x="212" y="225" type="curve" smooth="yes" name="KGKDVSVN"/>
      <point x="212" y="321" name="JGOMWEFR"/>
      <point x="212" y="421" name="DHUTSBVQ"/>
      <point x="212" y="517" type="curve" name="POAJDLPY"/>
      <point x="158" y="517" name="IXJWNVFI"/>
      <point x="101" y="517" name="TODMFPZJ"/>
      <point x="47" y="517" type="curve" name="QVKRMWJA"/>
      <point x="47" y="413" name="COWPLLSU"/>
      <point x="47" y="307" name="DXARDKKY"/>
      <point x="47" y="203" type="curve" smooth="yes" name="RXKQBBPJ"/>
      <point x="47" y="68" name="QLYSKIPY"/>
      <point x="126" y="-14" name="DTIJNGUM"/>
      <point x="240" y="-14" type="curve" smooth="yes" name="PNIUSOXF"/>
      <point x="292" y="-14" name="QAIDCIGJ"/>
      <point x="337" y="1" name="EZIGRJVQ"/>
      <point x="373" y="26" type="curve" name="JFNJQQEG"/>
      <point x="373" y="17" name="LNTIREQF"/>
      <point x="373" y="9" name="LIKITXOO"/>
      <point x="373" y="0" type="curve" name="ETLSGMWV"/>
      <point x="427" y="0" name="OSGRROZW"/>
      <point x="484" y="0" name="KZSVTFMV"/>
      <point x="538" y="0" type="curve" name="XEAUCMOR"/>
      <point x="538" y="171" name="AQWNUFYQ"/>
      <point x="538" y="346" name="TTAMHFIY"/>
    </contour>
  </outline>
</glyph>
<glyph name="x" format="2">
  <advance width="540"/>
  <unicode hex="0078"/>
  <outline>
    <contour>
      <point x="13" y="517" type="curve" name="YKTDXTZQ"/>
      <point x="65" y="434" name="XHTZXRJX"/>
      <point x="119" y="348" name="BFZMINBT"/>
      <point x="171" y="265" type="curve" name="IECWMLSP"/>
      <point x="116" y="178" name="WQZFSXLX"/>
      <point x="60" y="87" name="ZXZLYZEV"/>
      <point x="5" y="0" type="curve" name="JLUGSDDS"/>
      <point x="65" y="0" name="DYTCRJZY"/>
      <point x="127" y="0" name="FFDNXBKT"/>
      <point x="187" y="0" type="curve" name="GNBZDYRV"/>
      <point x="214" y="45" name="UVHUXIJS"/>
      <point x="243" y="92" name="OJOWEUYJ"/>
      <point x="270" y="137" type="curve" name="TJRVXFDA"/>
      <point x="297" y="92" name="ODUNEFYF"/>
      <point x="324" y="45" name="UTBGQWQD"/>
      <point x="351" y="0" type="curve" name="XDTZARFL"/>
      <point x="412" y="0" name="JVLTHOCM"/>
      <point x="474" y="0" name="TWOUBOMX"/>
      <point x="535" y="0" type="curve" name="JCWBITCC"/>
      <point x="481" y="89" name="MZJUXHSI"/>
      <point x="424" y="181" name="IRFCFLHR"/>
      <point x="370" y="270" type="curve" name="YEXIGYYJ"/>
      <point x="422" y="352" name="XKGWBLUA"/>
      <point x="477" y="435" name="SAKRJEIK"/>
      <point x="529" y="517" type="curve" name="OPGOCFEI"/>
      <point x="469" y="517" name="DVKCYUDW"/>
      <point x="407" y="517" name="ILTRWDGM"/>
      <point x="347" y="517" type="curve" name="GZHOYSPQ"/>
      <point x="322" y="477" name="XIVDLUYR"/>
      <point x="296" y="436" name="HPWUMWWL"/>
      <point x="271" y="396" type="curve" name="RXULEPKC"/>
      <point x="247" y="436" name="OZMLKFWN"/>
      <point x="221" y="477" name="LXDVIPCF"/>
      <point x="197" y="517" type="curve" name="XQHLXJIA"/>
      <point x="136" y="517" name="VCAJHNZM"/>
      <point x="74" y="517" name="ZCYSMKJX"/>
    </contour>
  </outline>
</glyph>
<glyph name="z" format="2">
  <advance width="490"/>
  <unicode hex="007A"/>
  <outline>
    <contour>
      <point x="40" y="0" type="curve" name="ATILBVOY"/>
      <point x="175" y="0" name="VFTVJBCO"/>
      <point x="315" y="0" name="MEGJOQDC"/>
      <point x="450" y="0" type="curve" name="EAFIJGVG"/>
      <point x="450" y="47" name="FPWNMFYW"/>
      <point x="450" y="95" name="UODVZHTI"/>
      <point x="450" y="142" type="curve" name="JYENNZAR"/>
      <point x="381" y="142" name="PICHKZQE"/>
      <point x="311" y="142" name="IQFUUTGN"/>
      <point x="242" y="142" type="curve" name="WNPBEUQT"/>
      <point x="311" y="219" name="ILFGKBPK"/>
      <point x="381" y="297" name="EBDEGZRG"/>
      <point x="450" y="374" type="curve" name="WDLOQFZY"/>
      <point x="450" y="421" name="FEZAVZUE"/>
      <point x="450" y="470" name="YGRHDRZI"/>
      <point x="450" y="517" type="curve" name="HBEHUFWB"/>
      <point x="315" y="517" name="TZJKBHAQ"/>
      <point x="175" y="517" name="NEPHHCEF"/>
      <point x="40" y="517" type="curve" name="CLGFOYPN"/>
      <point x="40" y="470" name="HJHQNWXQ"/>
      <point x="40" y="421" name="FRBJQKPS"/>
      <point x="40" y="374" type="curve" name="DMXUCNTG"/>
      <point x="109" y="374" name="QFKKHEBX"/>
      <point x="179" y="374" name="VMEOSIUP"/>
      <point x="248" y="374" type="curve" name="BQVHLJAR"/>
      <point x="179" y="297" name="BVSLRMYH"/>
      <point x="109" y="219" name="XCZPNAGZ"/>
      <point x="40" y="142" type="curve" name="PCOLTODA"/>
      <point x="40" y="95" name="PWQDHAHS"/>
      <point x="40" y="47" name="YNLZKRZS"/>
    </contour>
  </outline>
</glyph>
<glyph name="cent" format="2">
  <advance width="475"/>
  <unicode hex="00A2"/>
  <outline>
    <contour>
      <point x="168" y="-50" type="curve" name="BFJWSAGV"/>
      <point x="216" y="-50" name="PXVFEIKS"/>
      <point x="265" y="-50" name="AETJFETM"/>
      <point x="313" y="-50" type="curve" name="LJAQOTMB"/>
      <point x="315" y="-14" name="NSQVLCHO"/>
      <point x="318" y="23" name="BBTKOCGQ"/>
      <point x="320" y="59" type="curve" name="RRPIREQA"/>
      <point x="354" y="60" name="RSKNSZEF"/>
      <point x="390" y="67" name="NESMJWQH"/>
      <point x="428" y="78" type="curve" name="QEOPQSPP"/>
      <point x="428" y="129" name="HAGXTGBW"/>
      <point x="428" y="181" name="YSHSYPFW"/>
      <point x="428" y="232" type="curve" name="AVDPPXQX"/>
      <point x="312" y="177" name="KNATKYTU"/>
      <point x="196" y="204" name="YSDAFLCT"/>
      <point x="196" y="314" type="curve" smooth="yes" name="MCRADCXO"/>
      <point x="196" y="424" name="WLJWBZVQ"/>
      <point x="312" y="451" name="MWRFISZJ"/>
      <point x="428" y="396" type="curve" name="FVTOPQEG"/>
      <point x="428" y="447" name="VHMFLDGK"/>
      <point x="428" y="499" name="JMYJUQFU"/>
      <point x="428" y="550" type="curve" name="BCWWWLAO"/>
      <point x="401" y="558" name="KQCYGTGZ"/>
      <point x="374" y="564" name="RASXDEZL"/>
      <point x="348" y="567" type="curve" name="NAUEXXVK"/>
      <point x="350" y="604" name="RRTDEDIC"/>
      <point x="353" y="643" name="RFUENZSR"/>
      <point x="355" y="680" type="curve" name="GROPYLFB"/>
      <point x="307" y="680" name="XQSDXIKR"/>
      <point x="258" y="680" name="GAQLJFDK"/>
      <point x="210" y="680" type="curve" name="LRGGXZUN"/>
      <point x="207" y="639" name="ECPLDKGZ"/>
      <point x="205" y="596" name="HAADOSFA"/>
      <point x="202" y="555" type="curve" name="XTVLOHKA"/>
      <point x="96" y="522" name="AMVLKNVT"/>
      <point x="27" y="434" name="TQMPHLSA"/>
      <point x="27" y="314" type="curve" smooth="yes" name="ZFTJIVXR"/>
      <point x="27" y="205" name="RTKRDVRC"/>
      <point x="85" y="122" name="NJHVLYCZ"/>
      <point x="176" y="83" type="curve" name="TKJELYAU"/>
      <point x="173" y="39" name="QSNWVQSW"/>
      <point x="171" y="-6" name="MEJNLKNO"/>
    </contour>
  </outline>
</glyph>
<glyph name="currency" format="2">
  <advance width="646"/>
  <unicode hex="00A4"/>
  <outline>
    <contour>
      <point x="125" y="35" type="curve" name="XOUPFJZW"/>
      <point x="155" y="64" name="TCCSANFI"/>
      <point x="185" y="95" name="LSEDKHKK"/>
      <point x="215" y="124" type="curve" name="MHPXRGSD"/>
      <point x="247" y="110" name="JROHAIYX"/>
      <point x="283" y="102" name="BCYRBUTU"/>
      <point x="322" y="102" type="curve" smooth="yes" name="QVMYZRFE"/>
      <point x="362" y="102" name="OJWJNKYD"/>
      <point x="399" y="110" name="ISYQMZAF"/>
      <point x="431" y="125" type="curve" name="ZJBWOTSP"/>
      <point x="461" y="95" name="LUEPVBGC"/>
      <point x="491" y="65" name="RVOLEYYU"/>
      <point x="521" y="35" type="curve" name="MZKYDLFK"/>
      <point x="557" y="71" name="OLWCTLIJ"/>
      <point x="595" y="109" name="YYHAGTNV"/>
      <point x="631" y="145" type="curve" name="QCDRVAED"/>
      <point x="601" y="175" name="IFGEPDQK"/>
      <point x="571" y="205" name="YFEVEIZY"/>
      <point x="541" y="235" type="curve" name="DUTKXPCM"/>
      <point x="556" y="267" name="CQMFAAIL"/>
      <point x="564" y="304" name="OEWFQSBD"/>
      <point x="564" y="344" type="curve" smooth="yes" name="GAZKZISY"/>
      <point x="564" y="383" name="YUDSANMC"/>
      <point x="556" y="419" name="ETPROSCL"/>
      <point x="542" y="451" type="curve" name="JDMEJIDO"/>
      <point x="571" y="481" name="OVOEDJNF"/>
      <point x="602" y="511" name="QVXIUOLK"/>
      <point x="631" y="541" type="curve" name="SZVRIVTA"/>
      <point x="595" y="577" name="PMARJJKP"/>
      <point x="557" y="615" name="KRYHUVJA"/>
      <point x="521" y="651" type="curve" name="ISIPABRC"/>
      <point x="491" y="621" name="QBZAQLVY"/>
      <point x="461" y="591" name="EXEXGLOG"/>
      <point x="431" y="561" type="curve" name="YYLFPDBQ"/>
      <point x="399" y="576" name="MEUDYILE"/>
      <point x="362" y="584" name="MSPVKTVH"/>
      <point x="322" y="584" type="curve" smooth="yes" name="BMFODRVE"/>
      <point x="283" y="584" name="MXCTZACU"/>
      <point x="247" y="576" name="RTVSGAZS"/>
      <point x="215" y="562" type="curve" name="QCFOSKYR"/>
      <point x="185" y="591" name="UWSLNJPZ"/>
      <point x="155" y="622" name="XGAOSKBR"/>
      <point x="125" y="651" type="curve" name="LZTSRLOJ"/>
      <point x="89" y="615" name="ZEFUSIEB"/>
      <point x="51" y="577" name="RWHQSGKK"/>
      <point x="15" y="541" type="curve" name="JIPMCPFS"/>
      <point x="44" y="511" name="DFDDAJHS"/>
      <point x="75" y="481" name="AIVWARJH"/>
      <point x="104" y="451" type="curve" name="PTWBZCSB"/>
      <point x="90" y="419" name="BIKZZNHR"/>
      <point x="82" y="383" name="DFDENSBD"/>
      <point x="82" y="344" type="curve" smooth="yes" name="ZKXBLWCD"/>
      <point x="82" y="304" name="MOFTOUZE"/>
      <point x="90" y="267" name="SVOIAWBL"/>
      <point x="105" y="235" type="curve" name="ZTKDYVAS"/>
      <point x="75" y="205" name="PWTEQEIM"/>
      <point x="45" y="175" name="YEOTRHGR"/>
      <point x="15" y="145" type="curve" name="HAEBMJQF"/>
      <point x="51" y="109" name="ASUEQZSA"/>
      <point x="89" y="71" name="FLTNSHDX"/>
    </contour>
    <contour>
      <point x="322" y="247" type="curve" name="KZKQZFVD"/>
      <point x="266" y="247" name="WIJNNJAU"/>
      <point x="232" y="285" name="ZFQYIBPB"/>
      <point x="232" y="344" type="curve" smooth="yes" name="PZMQNDZS"/>
      <point x="232" y="403" name="FTELWPFV"/>
      <point x="266" y="441" name="RBHIISEF"/>
      <point x="322" y="441" type="curve" smooth="yes" name="FKKZFPLD"/>
      <point x="378" y="441" name="PYSOVQSB"/>
      <point x="415" y="403" name="GAUCFUIP"/>
      <point x="415" y="344" type="curve" smooth="yes" name="YSZYUTXM"/>
      <point x="415" y="285" name="JKBCHCMM"/>
      <point x="378" y="247" name="FCIXWOSJ"/>
      <point x="322" y="247" type="curve" name="QRWVUWIS"/>
      <point x="322" y="247" name="KZROBUCM"/>
      <point x="322" y="247" name="DXUUFTHC"/>
    </contour>
  </outline>
</glyph>
<glyph name="yen" format="2">
  <advance width="599"/>
  <unicode hex="00A5"/>
  <outline>
    <contour>
      <point x="50" y="101" type="curve" name="JORMABMS"/>
      <point x="103" y="101" name="AKTPSWHU"/>
      <point x="159" y="101" name="SBMWTIDG"/>
      <point x="212" y="101" type="curve" name="OSSZDLSZ"/>
      <point x="212" y="68" name="AUJBUGOD"/>
      <point x="212" y="33" name="GGYWJURB"/>
      <point x="212" y="0" type="curve" name="TZUAZNRC"/>
      <point x="270" y="0" name="ZPPVOHGV"/>
      <point x="329" y="0" name="SUZHJACS"/>
      <point x="387" y="0" type="curve" name="MFSGHXAX"/>
      <point x="387" y="33" name="RVXMKWKK"/>
      <point x="387" y="68" name="FFGERYZH"/>
      <point x="387" y="101" type="curve" name="ZFZFJQTM"/>
      <point x="440" y="101" name="UCIEEYME"/>
      <point x="496" y="101" name="PVCCVYBR"/>
      <point x="549" y="101" type="curve" name="WAYEEQSO"/>
      <point x="549" y="139" name="ZSUYZSTU"/>
      <point x="549" y="178" name="PCLAJOBO"/>
      <point x="549" y="216" type="curve" name="DAUOXKIV"/>
      <point x="496" y="216" name="CNKCSYCN"/>
      <point x="440" y="216" name="ZMUPXDZW"/>
      <point x="387" y="216" type="curve" name="HZHJLXLH"/>
      <point x="387" y="231" name="ZHAKVGXA"/>
      <point x="387" y="246" name="FXDUXOSF"/>
      <point x="387" y="261" type="curve" name="DKMQAUOK"/>
      <point x="440" y="261" name="BRDFRDSG"/>
      <point x="496" y="261" name="IHAXYKCE"/>
      <point x="549" y="261" type="curve" name="YJLZLLWV"/>
      <point x="549" y="299" name="RHUKGFPQ"/>
      <point x="549" y="338" name="RJNULYAU"/>
      <point x="549" y="376" type="curve" name="YZBRKMEG"/>
      <point x="509" y="376" name="HTKAYRGE"/>
      <point x="468" y="376" name="ENRKEUSP"/>
      <point x="428" y="376" type="curve" name="LPAAZGFL"/>
      <point x="482" y="476" name="MQOQCEOM"/>
      <point x="539" y="580" name="YVKUIQPL"/>
      <point x="593" y="680" type="curve" name="GBQUWWHF"/>
      <point x="532" y="680" name="UTFQDWHV"/>
      <point x="470" y="680" name="EVIMHKZM"/>
      <point x="409" y="680" type="curve" name="TPKKIQMF"/>
      <point x="373" y="613" name="NIJLIEFK"/>
      <point x="337" y="543" name="IUPHXAWU"/>
      <point x="301" y="476" type="curve" name="BBYNWYHF"/>
      <point x="265" y="543" name="LTPYNKQJ"/>
      <point x="228" y="613" name="OMVGJMVS"/>
      <point x="192" y="680" type="curve" name="DLLYEVME"/>
      <point x="131" y="680" name="AAPAKNYG"/>
      <point x="67" y="680" name="HKCWTCGT"/>
      <point x="6" y="680" type="curve" name="TGBMGRZV"/>
      <point x="60" y="580" name="KREDZTYP"/>
      <point x="117" y="476" name="COTOKOIS"/>
      <point x="171" y="376" type="curve" name="YWZNGTBY"/>
      <point x="131" y="376" name="LKYUJHDC"/>
      <point x="90" y="376" name="DLCROESA"/>
      <point x="50" y="376" type="curve" name="GMCYDPKQ"/>
      <point x="50" y="338" name="UPNAJHBW"/>
      <point x="50" y="299" name="JQVMBEUM"/>
      <point x="50" y="261" type="curve" name="RWSKFHRQ"/>
      <point x="103" y="261" name="HKZKEGSC"/>
      <point x="159" y="261" name="LTBOVNNA"/>
      <point x="212" y="261" type="curve" name="SCQQRSUO"/>
      <point x="212" y="246" name="WNFGLSXC"/>
      <point x="212" y="231" name="BNVRVLNZ"/>
      <point x="212" y="216" type="curve" name="SMJGQXKY"/>
      <point x="159" y="216" name="KCUHPUPQ"/>
      <point x="103" y="216" name="APITBWXP"/>
      <point x="50" y="216" type="curve" name="JDROMBYJ"/>
      <point x="50" y="178" name="BMAZYUHG"/>
      <point x="50" y="139" name="MSXQYRRO"/>
    </contour>
  </outline>
</glyph>
<glyph name="registered" format="2">
  <advance width="614"/>
  <unicode hex="00AE"/>
  <outline>
    <contour>
      <point x="307" y="186" type="curve" name="ZJPAOHIL"/>
      <point x="456" y="186" name="UBYBDRLG"/>
      <point x="564" y="294" name="XCEZYLOZ"/>
      <point x="564" y="443" type="curve" smooth="yes" name="RKSISJRH"/>
      <point x="564" y="592" name="KAUYIQEA"/>
      <point x="456" y="700" name="HPCCQFUD"/>
      <point x="307" y="700" type="curve" smooth="yes" name="SSQOLBWQ"/>
      <point x="158" y="700" name="JGQKHYRT"/>
      <point x="50" y="592" name="PIQJXNWD"/>
      <point x="50" y="443" type="curve" smooth="yes" name="NCFUKRXD"/>
      <point x="50" y="294" name="MSEXROUV"/>
      <point x="158" y="186" name="ZMAPPZDK"/>
      <point x="307" y="186" type="curve" name="OYPZDYJW"/>
      <point x="307" y="186" name="KTBDMFHL"/>
      <point x="307" y="186" name="YMWTAKGP"/>
    </contour>
    <contour>
      <point x="307" y="238" type="curve" name="SAGCRDPG"/>
      <point x="189" y="238" name="NNSUHSIK"/>
      <point x="105" y="325" name="NPWOOSKT"/>
      <point x="105" y="443" type="curve" smooth="yes" name="GTIARTID"/>
      <point x="105" y="561" name="RATHLJFM"/>
      <point x="189" y="648" name="BXRMCCUD"/>
      <point x="307" y="648" type="curve" smooth="yes" name="EAUGZHCF"/>
      <point x="424" y="648" name="TKGKFILF"/>
      <point x="509" y="561" name="QHJERAAI"/>
      <point x="509" y="443" type="curve" smooth="yes" name="GIHMRHSB"/>
      <point x="509" y="325" name="XOVXSAXN"/>
      <point x="424" y="238" name="XDKNCWAZ"/>
      <point x="307" y="238" type="curve" name="KHIUXGQN"/>
      <point x="307" y="238" name="GZWPPYNY"/>
      <point x="307" y="238" name="WGDMMZDP"/>
    </contour>
    <contour>
      <point x="209" y="322" type="curve" name="ZRVBVIVI"/>
      <point x="235" y="322" name="GPZWUZVM"/>
      <point x="261" y="322" name="EXEJCZRV"/>
      <point x="287" y="322" type="curve" name="HWCXLEMJ"/>
      <point x="287" y="343" name="EHFZERLS"/>
      <point x="287" y="365" name="GARANICO"/>
      <point x="287" y="386" type="curve" name="NNULKUXU"/>
      <point x="296" y="386" name="DZMYDYHX"/>
      <point x="304" y="386" name="DAJTGGXM"/>
      <point x="313" y="386" type="curve" name="JPZORZRB"/>
      <point x="313" y="386" name="OOCHPJQO"/>
      <point x="314" y="386" name="HWLXQLLE"/>
      <point x="314" y="386" type="curve" name="QARUYPVF"/>
      <point x="327" y="365" name="YDXFZBZJ"/>
      <point x="341" y="343" name="VGBJOLDK"/>
      <point x="354" y="322" type="curve" name="ZITPXKCD"/>
      <point x="383" y="322" name="PHMLERXW"/>
      <point x="413" y="322" name="LONBPHHU"/>
      <point x="442" y="322" type="curve" name="PGMSKNJI"/>
      <point x="423" y="351" name="XNIHKJMW"/>
      <point x="403" y="381" name="AHIYADYP"/>
      <point x="384" y="410" type="curve" name="MYAPFJDG"/>
      <point x="403" y="426" name="ZHHUWGKP"/>
      <point x="415" y="450" name="IDDEKBEB"/>
      <point x="415" y="479" type="curve" smooth="yes" name="LYCAJXVL"/>
      <point x="415" y="535" name="HCITNEYJ"/>
      <point x="372" y="574" name="QIWCPMHW"/>
      <point x="307" y="574" type="curve" smooth="yes" name="XTYNPMDI"/>
      <point x="275" y="574" name="XZHFLAUE"/>
      <point x="241" y="574" name="JMMCOFMU"/>
      <point x="209" y="574" type="curve" name="PZRVULHO"/>
      <point x="209" y="491" name="ZFIIYAUE"/>
      <point x="209" y="405" name="TDMCUMWB"/>
    </contour>
    <contour>
      <point x="309" y="505" type="curve" smooth="yes" name="SBZUZKOV"/>
      <point x="326" y="505" name="CUKCUXOK"/>
      <point x="337" y="493" name="XJOMVBXJ"/>
      <point x="337" y="478" type="curve" smooth="yes" name="VQFMFNEF"/>
      <point x="337" y="464" name="QTQCSZKN"/>
      <point x="327" y="452" name="TJGAQIFA"/>
      <point x="313" y="452" type="curve" smooth="yes" name="PODHIHRL"/>
      <point x="304" y="452" name="EIQOBLIG"/>
      <point x="296" y="452" name="EKGAYYZI"/>
      <point x="287" y="452" type="curve" name="GKOJMUMU"/>
      <point x="287" y="469" name="PSJFDUVV"/>
      <point x="287" y="488" name="EYUWAFJR"/>
      <point x="287" y="505" type="curve" name="SERRKTSE"/>
      <point x="294" y="505" name="PBPYLWLL"/>
      <point x="302" y="505" name="UDIYFGKK"/>
    </contour>
  </outline>
</glyph>
<glyph name="macron" format="2">
  <advance width="490"/>
  <unicode hex="00AF"/>
  <anchor x="0" y="517" name="top"/>
  <anchor x="245" y="517" name="center"/>
  <outline>
    <contour>
      <point x="60" y="595" type="curve" name="XXSHZBNL"/>
      <point x="182" y="595" name="NGHWCVVM"/>
      <point x="308" y="595" name="JFJVSNDK"/>
      <point x="430" y="595" type="curve" name="OLCWGAUD"/>
      <point x="430" y="643" name="SJHBGBMM"/>
      <point x="430" y="692" name="OENVPXRD"/>
      <point x="430" y="740" type="curve" name="XBQBVLLU"/>
      <point x="308" y="740" name="DHREOKUM"/>
      <point x="182" y="740" name="SNDSZZXU"/>
      <point x="60" y="740" type="curve" name="MXFFEEKR"/>
      <point x="60" y="692" name="MOEFRJQZ"/>
      <point x="60" y="643" name="JMDOQEAW"/>
    </contour>
  </outline>
</glyph>
<glyph name="plusminus" format="2">
  <advance width="540"/>
  <unicode hex="00B1"/>
  <outline>
    <contour>
      <point x="40" y="301" type="curve" name="HZTILNMF"/>
      <point x="90" y="301" name="MYALUGZO"/>
      <point x="141" y="301" name="PHUAONUE"/>
      <point x="191" y="301" type="curve" name="ABKWWAWM"/>
      <point x="191" y="262" name="LEEEYNOB"/>
      <point x="191" y="223" name="DQTLXQCE"/>
      <point x="191" y="184" type="curve" name="VVWJTIVA"/>
      <point x="243" y="184" name="BURGGTBB"/>
      <point x="298" y="184" name="DXXNAPJM"/>
      <point x="350" y="184" type="curve" name="TFLFAZBX"/>
      <point x="350" y="223" name="ACKKWOQF"/>
      <point x="350" y="262" name="RNABONOP"/>
      <point x="350" y="301" type="curve" name="NLRMSSLX"/>
      <point x="400" y="301" name="NOOXURJE"/>
      <point x="450" y="301" name="CTGHJYYN"/>
      <point x="500" y="301" type="curve" name="RBUCAHIE"/>
      <point x="500" y="352" name="MPCMOEXO"/>
      <point x="500" y="405" name="KPHQFNCF"/>
      <point x="500" y="456" type="curve" name="EEJVZWFL"/>
      <point x="450" y="456" name="CVHTSJMB"/>
      <point x="400" y="456" name="SNJYSJUL"/>
      <point x="350" y="456" type="curve" name="KGYFIUEN"/>
      <point x="350" y="502" name="FGWKJHXB"/>
      <point x="350" y="548" name="PNHXTLHF"/>
      <point x="350" y="594" type="curve" name="RWYXZKBX"/>
      <point x="298" y="594" name="ICNDTIJE"/>
      <point x="243" y="594" name="AUWAKIJN"/>
      <point x="191" y="594" type="curve" name="OKTOJOJO"/>
      <point x="191" y="548" name="ZTLDVXHP"/>
      <point x="191" y="502" name="RRKQSIGU"/>
      <point x="191" y="456" type="curve" name="YYLPOOHK"/>
      <point x="141" y="456" name="IVTFEOFC"/>
      <point x="90" y="456" name="EQVGGATG"/>
      <point x="40" y="456" type="curve" name="OBMKMHCF"/>
      <point x="40" y="405" name="MQGQSUUD"/>
      <point x="40" y="352" name="FYMYUOHP"/>
    </contour>
    <contour>
      <point x="40" y="0" type="curve" name="UJFEDHJK"/>
      <point x="192" y="0" name="SBVMCWFH"/>
      <point x="348" y="0" name="ORQSTYDZ"/>
      <point x="500" y="0" type="curve" name="AAQBVFAW"/>
      <point x="500" y="51" name="QYCIQGQU"/>
      <point x="500" y="104" name="VPYXXOZR"/>
      <point x="500" y="155" type="curve" name="WYHNZAEY"/>
      <point x="348" y="155" name="MUCSZKYK"/>
      <point x="192" y="155" name="BCVZJNLD"/>
      <point x="40" y="155" type="curve" name="VKBXOTQJ"/>
      <point x="40" y="104" name="FKOIICMS"/>
      <point x="40" y="51" name="WAHZQYCV"/>
    </contour>
  </outline>
</glyph>
<glyph name="threesuperior" format="2">
  <advance width="419"/>
  <unicode hex="00B3"/>
  <outline>
    <contour>
      <point x="96" y="511" type="curve" name="LEDVILVL"/>
      <point x="96" y="488" name="EOLMSIYT"/>
      <point x="96" y="463" name="ADCHJUWJ"/>
      <point x="96" y="440" type="curve" name="VKEAGCDD"/>
      <point x="212" y="444" name="EEUNXDCW"/>
      <point x="248" y="434" name="ZXRVWJYT"/>
      <point x="248" y="406" type="curve" smooth="yes" name="DSXWSKUO"/>
      <point x="248" y="376" name="BYVIJXKF"/>
      <point x="201" y="365" name="HFNVJGHY"/>
      <point x="70" y="396" type="curve" name="AKOGIJYP"/>
      <point x="70" y="359" name="FKOKAUAL"/>
      <point x="70" y="321" name="QWPISSDJ"/>
      <point x="70" y="284" type="curve" name="XIWJSCMM"/>
      <point x="221" y="243" name="RTJBWBBX"/>
      <point x="374" y="275" name="INVSWDLO"/>
      <point x="374" y="397" type="curve" smooth="yes" name="OMOAPJRM"/>
      <point x="374" y="463" name="BJYTSTAM"/>
      <point x="334" y="505" name="TMBPVHUL"/>
      <point x="266" y="520" type="curve" name="DQBSGPWM"/>
      <point x="295" y="537" name="XBBTDFYK"/>
      <point x="325" y="556" name="OTTJUTYT"/>
      <point x="354" y="573" type="curve" name="YHHBJGDI"/>
      <point x="354" y="608" name="TXNTJUEW"/>
      <point x="354" y="645" name="DVURYWAB"/>
      <point x="354" y="680" type="curve" name="HBMXTNVK"/>
      <point x="261" y="680" name="DJGWJPXU"/>
      <point x="165" y="680" name="QJPQQOND"/>
      <point x="72" y="680" type="curve" name="CJOJQFXX"/>
      <point x="72" y="645" name="WPPCCCZX"/>
      <point x="72" y="608" name="XPKPXVKD"/>
      <point x="72" y="573" type="curve" name="OTBAJBSF"/>
      <point x="112" y="573" name="UGKUMHTG"/>
      <point x="153" y="573" name="JQDQGSZH"/>
      <point x="193" y="573" type="curve" name="UHCFHCQK"/>
      <point x="161" y="553" name="IKCOODTJ"/>
      <point x="128" y="531" name="DOBAPBWA"/>
    </contour>
  </outline>
</glyph>
<glyph name="mu.math" format="2">
  <advance width="593"/>
  <unicode hex="00B5"/>
  <outline>
    <contour>
      <point x="538" y="517" type="curve" name="PLNRBHVW"/>
      <point x="484" y="517" name="RGZOKVCW"/>
      <point x="427" y="517" name="BZBEOLNS"/>
      <point x="373" y="517" type="curve" name="MNPFRXIF"/>
      <point x="373" y="421" name="IKFSIKVA"/>
      <point x="373" y="321" name="MHKYZKPT"/>
      <point x="373" y="225" type="curve" smooth="yes" name="RNCPLWDJ"/>
      <point x="373" y="168" name="LJLIRDEJ"/>
      <point x="342" y="136" name="KHOYULFA"/>
      <point x="289" y="136" type="curve" smooth="yes" name="ZPAYZYBH"/>
      <point x="236" y="136" name="QWDDXZIJ"/>
      <point x="212" y="172" name="CIPQOYRL"/>
      <point x="212" y="225" type="curve" smooth="yes" name="RFZZCEHD"/>
      <point x="212" y="321" name="DPOYICIH"/>
      <point x="212" y="421" name="AIONHRAV"/>
      <point x="212" y="517" type="curve" name="EVFKEXGZ"/>
      <point x="158" y="517" name="YRPJYRQP"/>
      <point x="101" y="517" name="TOFHSMRG"/>
      <point x="47" y="517" type="curve" name="FWVFFKYT"/>
      <point x="47" y="294" name="CBDLTKVH"/>
      <point x="47" y="63" name="MJEYEYNG"/>
      <point x="47" y="-160" type="curve" name="SLGKHBHE"/>
      <point x="101" y="-160" name="NOOKQSXU"/>
      <point x="158" y="-160" name="PFNUZMYF"/>
      <point x="212" y="-160" type="curve" name="NCTHWSWJ"/>
      <point x="212" y="-107" name="JHZXLADD"/>
      <point x="212" y="-52" name="XPAJDKKN"/>
      <point x="212" y="1" type="curve" name="WTAPUAAI"/>
      <point x="228" y="-9" name="TWVWCRTN"/>
      <point x="248" y="-14" name="RCOFAFSB"/>
      <point x="272" y="-14" type="curve" smooth="yes" name="BCFSQDUR"/>
      <point x="309" y="-14" name="IFXPWYLQ"/>
      <point x="344" y="-2" name="MFZYWYBI"/>
      <point x="373" y="18" type="curve" name="UDFGQPGB"/>
      <point x="373" y="12" name="BLJFVVOA"/>
      <point x="373" y="6" name="ATMEBLWS"/>
      <point x="373" y="0" type="curve" name="HYCDJXMU"/>
      <point x="427" y="0" name="NMARDQIH"/>
      <point x="484" y="0" name="QVZZQRKX"/>
      <point x="538" y="0" type="curve" name="XQXTRXNF"/>
      <point x="538" y="171" name="CQNDBCXW"/>
      <point x="538" y="346" name="VGQPAPRN"/>
    </contour>
  </outline>
</glyph>
<glyph name="paragraph" format="2">
  <advance width="778"/>
  <unicode hex="00B6"/>
  <outline>
    <contour>
      <point x="478" y="0" type="curve" name="POHNFLTV"/>
      <point x="478" y="173" name="DYVOHCSQ"/>
      <point x="478" y="350" name="VAMQXABW"/>
      <point x="478" y="523" type="curve" name="BQFOKKHX"/>
      <point x="499" y="523" name="RERLBSTX"/>
      <point x="522" y="523" name="SFRJPLRN"/>
      <point x="543" y="523" type="curve" name="QJOHYPMS"/>
      <point x="543" y="350" name="MOPSCXSU"/>
      <point x="543" y="173" name="YRGLRQVO"/>
      <point x="543" y="0" type="curve" name="TLYQFPJL"/>
      <point x="597" y="0" name="KRIKTQQT"/>
      <point x="654" y="0" name="KBRECPYF"/>
      <point x="708" y="0" type="curve" name="BVBPSTWE"/>
      <point x="708" y="224" name="CLVWUIZV"/>
      <point x="708" y="456" name="XHWFLNSQ"/>
      <point x="708" y="680" type="curve" name="JQBTZGTV"/>
      <point x="570" y="680" name="YEJIUJSB"/>
      <point x="428" y="680" name="TYGASFHN"/>
      <point x="290" y="680" type="curve" smooth="yes" name="TAFJWVHT"/>
      <point x="137" y="680" name="VECPLYFN"/>
      <point x="35" y="589" name="NLVQHROW"/>
      <point x="35" y="454" type="curve" smooth="yes" name="ULOZTXDX"/>
      <point x="35" y="319" name="AEIJIALB"/>
      <point x="138" y="230" name="HGUJSYED"/>
      <point x="276" y="230" type="curve" smooth="yes" name="BPNJRIIU"/>
      <point x="288" y="230" name="GYSHJTTR"/>
      <point x="301" y="230" name="GKRIEZNG"/>
      <point x="313" y="230" type="curve" name="YZXGCWDI"/>
      <point x="313" y="154" name="FXZNSIMA"/>
      <point x="313" y="76" name="DISNICQE"/>
      <point x="313" y="0" type="curve" name="KCFECNTC"/>
      <point x="367" y="0" name="VEERDOYW"/>
      <point x="424" y="0" name="CINNBUNQ"/>
    </contour>
    <contour>
      <point x="280" y="382" type="curve" smooth="yes" name="EFVDUPAZ"/>
      <point x="239" y="382" name="JILBSVVU"/>
      <point x="210" y="412" name="TFYGWCDP"/>
      <point x="210" y="452" type="curve" smooth="yes" name="GHCBFLYK"/>
      <point x="210" y="492" name="ZIDCXQMY"/>
      <point x="240" y="523" name="YAIOMJBK"/>
      <point x="290" y="523" type="curve" smooth="yes" name="IFHLOQFR"/>
      <point x="298" y="523" name="NRDROCZA"/>
      <point x="305" y="523" name="MLWHJCYR"/>
      <point x="313" y="523" type="curve" name="ERLGSNGY"/>
      <point x="313" y="476" name="XUWTYWXP"/>
      <point x="313" y="429" name="BFRPRJOC"/>
      <point x="313" y="382" type="curve" name="CGEACANI"/>
      <point x="302" y="382" name="UCPAQPWX"/>
      <point x="291" y="382" name="OPMWTSVI"/>
    </contour>
  </outline>
</glyph>
<glyph name="periodcentered" format="2">
  <advance width="291"/>
  <unicode hex="00B7"/>
  <outline>
    <contour>
      <point x="146" y="205" type="curve" name="QZPGWSXH"/>
      <point x="203" y="205" name="IGSLINGF"/>
      <point x="251" y="252" name="TOMNVNZE"/>
      <point x="251" y="309" type="curve" smooth="yes" name="ETDWYTUG"/>
      <point x="251" y="365" name="KMWFBMFJ"/>
      <point x="203" y="412" name="KKATHTBD"/>
      <point x="146" y="412" type="curve" smooth="yes" name="PWWKNFZR"/>
      <point x="87" y="412" name="LKKGBRFB"/>
      <point x="40" y="365" name="MSRLSYGZ"/>
      <point x="40" y="309" type="curve" smooth="yes" name="KUGZVPRU"/>
      <point x="40" y="252" name="YFFKTDCF"/>
      <point x="87" y="205" name="PKSSAORT"/>
      <point x="146" y="205" type="curve" name="GZGCNOTH"/>
      <point x="146" y="205" name="FGFFLEOO"/>
      <point x="146" y="205" name="KBGQMAQN"/>
    </contour>
  </outline>
</glyph>
<glyph name="onesuperior" format="2">
  <advance width="338"/>
  <unicode hex="00B9"/>
  <outline>
    <contour>
      <point x="257" y="693" type="curve" name="LGTCOXJT"/>
      <point x="185" y="680" name="CXKUJLQW"/>
      <point x="112" y="668" name="LJWLOXLH"/>
      <point x="40" y="655" type="curve" name="PXAALMQR"/>
      <point x="40" y="618" name="DEAPKAFH"/>
      <point x="40" y="580" name="MIGDYJGX"/>
      <point x="40" y="543" type="curve" name="DUPPVZPZ"/>
      <point x="67" y="548" name="VQDIGQZN"/>
      <point x="95" y="552" name="DKJTEAYE"/>
      <point x="122" y="557" type="curve" name="VCWERRRN"/>
      <point x="122" y="463" name="MLHYKVCK"/>
      <point x="122" y="365" name="EJPZGNAF"/>
      <point x="122" y="271" type="curve" name="EUMYXOSR"/>
      <point x="167" y="271" name="IKIQTHIR"/>
      <point x="212" y="271" name="QTNTSGNO"/>
      <point x="257" y="271" type="curve" name="EONATQBD"/>
      <point x="257" y="410" name="EUEDITTD"/>
      <point x="257" y="554" name="YXTTGIIN"/>
    </contour>
  </outline>
</glyph>
<glyph name="ordmasculine" format="2">
  <advance width="492"/>
  <unicode hex="00BA"/>
  <outline>
    <contour>
      <point x="246" y="272" type="curve" name="QUXOVDUU"/>
      <point x="366" y="272" name="BVCBBTNR"/>
      <point x="456" y="362" name="FPCCZFFP"/>
      <point x="456" y="483" type="curve" smooth="yes" name="YESOZEVE"/>
      <point x="456" y="604" name="KHFBKNFK"/>
      <point x="366" y="694" name="VKRIMLVT"/>
      <point x="246" y="694" type="curve" smooth="yes" name="OOCZLOWT"/>
      <point x="125" y="694" name="AZSJSAVS"/>
      <point x="36" y="604" name="HSQTDYGW"/>
      <point x="36" y="483" type="curve" smooth="yes" name="DHSFGBMB"/>
      <point x="36" y="362" name="ISVJOWOI"/>
      <point x="125" y="272" name="KJBGFCVW"/>
      <point x="246" y="272" type="curve" name="KZFADUIA"/>
      <point x="246" y="272" name="WHELMLTA"/>
      <point x="246" y="272" name="YDBMGNXG"/>
    </contour>
    <contour>
      <point x="246" y="401" type="curve" name="QSUTQDYL"/>
      <point x="203" y="401" name="CFANXCSY"/>
      <point x="175" y="435" name="WXQYNDQV"/>
      <point x="175" y="483" type="curve" smooth="yes" name="ZGCXROIC"/>
      <point x="175" y="532" name="FQXFVAHC"/>
      <point x="203" y="565" name="KIZGGHVK"/>
      <point x="246" y="565" type="curve" smooth="yes" name="HMMMNZGP"/>
      <point x="289" y="565" name="FKNSRRLL"/>
      <point x="317" y="532" name="CVHONBFO"/>
      <point x="317" y="483" type="curve" smooth="yes" name="PXQKNKVS"/>
      <point x="317" y="435" name="ZSHBWAOQ"/>
      <point x="289" y="401" name="QTLKVVXZ"/>
      <point x="246" y="401" type="curve" name="LDBCGVBK"/>
      <point x="246" y="401" name="WYYWIBMT"/>
      <point x="246" y="401" name="ZFQSGOGB"/>
    </contour>
    <contour>
      <point x="56" y="103" type="curve" name="SGZABZTW"/>
      <point x="181" y="103" name="RNNCDDTT"/>
      <point x="311" y="103" name="ALRKHJZB"/>
      <point x="436" y="103" type="curve" name="DHWYNNUH"/>
      <point x="436" y="146" name="JEPIQCNS"/>
      <point x="436" y="189" name="ASRHQINO"/>
      <point x="436" y="232" type="curve" name="ZUUNGPRK"/>
      <point x="311" y="232" name="BWSWDPXS"/>
      <point x="181" y="232" name="MKCSLKON"/>
      <point x="56" y="232" type="curve" name="FNHLCFUN"/>
      <point x="56" y="189" name="OPQVKVWB"/>
      <point x="56" y="146" name="OUSAHPFC"/>
    </contour>
  </outline>
</glyph>
<glyph name="guillemetright" format="2">
  <advance width="777"/>
  <unicode hex="00BB"/>
  <outline>
    <contour>
      <point x="737" y="172" type="curve" name="AMPZHCJL"/>
      <point x="737" y="230" name="RFOQXAYN"/>
      <point x="737" y="291" name="XQIZNOTS"/>
      <point x="737" y="349" type="curve" name="IEPGGYUR"/>
      <point x="632" y="412" name="SHKCWJNY"/>
      <point x="525" y="477" name="ZNEBJOIX"/>
      <point x="420" y="540" type="curve" name="JASISLUR"/>
      <point x="420" y="479" name="ZTDLJXIM"/>
      <point x="420" y="415" name="LBAPQICY"/>
      <point x="420" y="354" type="curve" name="BMBDOPEY"/>
      <point x="475" y="322" name="RCNSRXFQ"/>
      <point x="531" y="290" name="NLEWGGBM"/>
      <point x="586" y="258" type="curve" name="EKDAQRQW"/>
      <point x="531" y="227" name="OJJQKEIY"/>
      <point x="475" y="195" name="EKIVNDMJ"/>
      <point x="420" y="164" type="curve" name="NYRGEHTE"/>
      <point x="420" y="104" name="MGBPCGFF"/>
      <point x="420" y="41" name="QHURZNDH"/>
      <point x="420" y="-19" type="curve" name="IJGFQMVP"/>
      <point x="525" y="44" name="UGDQJBEO"/>
      <point x="632" y="109" name="IDAHSBQU"/>
    </contour>
    <contour>
      <point x="367" y="172" type="curve" name="TOEAXZMP"/>
      <point x="367" y="230" name="AMLSDUGV"/>
      <point x="367" y="291" name="TAIPUILQ"/>
      <point x="367" y="349" type="curve" name="MPCEJJNR"/>
      <point x="262" y="412" name="VXVPRBOW"/>
      <point x="155" y="477" name="VXASQSOC"/>
      <point x="50" y="540" type="curve" name="QUIYNEWU"/>
      <point x="50" y="479" name="UYVHYRXZ"/>
      <point x="50" y="415" name="VLBFVHOJ"/>
      <point x="50" y="354" type="curve" name="BPYLQXJD"/>
      <point x="105" y="322" name="ZTCTPDAE"/>
      <point x="161" y="290" name="TBPXMZNP"/>
      <point x="216" y="258" type="curve" name="QXHKDTWW"/>
      <point x="161" y="227" name="YWCHJDXE"/>
      <point x="105" y="195" name="LISOLNGB"/>
      <point x="50" y="164" type="curve" name="PDJOIIHT"/>
      <point x="50" y="104" name="JXHKESXU"/>
      <point x="50" y="41" name="CQWOPOLE"/>
      <point x="50" y="-19" type="curve" name="DKPGHRQG"/>
      <point x="155" y="44" name="GXTPBFTL"/>
      <point x="262" y="109" name="FAHKLNOV"/>
    </contour>
  </outline>
</glyph>
<glyph name="onehalf" format="2">
  <advance width="940"/>
  <unicode hex="00BD"/>
  <outline>
    <contour>
      <point x="257" y="693" type="curve" name="JWBZIMKM"/>
      <point x="185" y="680" name="MHGOMMMG"/>
      <point x="112" y="668" name="ZJYOLNYV"/>
      <point x="40" y="655" type="curve" name="DXKYGVRD"/>
      <point x="40" y="618" name="SCKTCSTV"/>
      <point x="40" y="580" name="IFPKSGNA"/>
      <point x="40" y="543" type="curve" name="KVSZIUTT"/>
      <point x="67" y="548" name="PFGAVGLN"/>
      <point x="95" y="552" name="KJFNSRSL"/>
      <point x="122" y="557" type="curve" name="NXBQLOVX"/>
      <point x="122" y="463" name="YNCUEWTW"/>
      <point x="122" y="365" name="DCBNBWAH"/>
      <point x="122" y="271" type="curve" name="YQLEOOAG"/>
      <point x="167" y="271" name="ZHMVICOY"/>
      <point x="212" y="271" name="PQRBGVIF"/>
      <point x="257" y="271" type="curve" name="ZCAHNGRG"/>
      <point x="257" y="410" name="YYSSAKLS"/>
      <point x="257" y="554" name="YHUXXENP"/>
    </contour>
    <contour>
      <point x="157" y="0" type="curve" name="RCZEKFUV"/>
      <point x="203" y="0" name="USUMFPPA"/>
      <point x="249" y="0" name="OCOQJUZO"/>
      <point x="295" y="0" type="curve" name="PMWFGNGU"/>
      <point x="426" y="224" name="CIJZKHSL"/>
      <point x="560" y="456" name="HZFELLYY"/>
      <point x="691" y="680" type="curve" name="XFQOGAER"/>
      <point x="645" y="680" name="DOVQWKDZ"/>
      <point x="599" y="680" name="FZZPTURG"/>
      <point x="553" y="680" type="curve" name="KVEBWTZM"/>
      <point x="422" y="456" name="ZLJDHKKZ"/>
      <point x="288" y="224" name="DBSBNCYO"/>
    </contour>
    <contour>
      <point x="577" y="0" type="curve" name="YAVJHSZG"/>
      <point x="678" y="0" name="IOSMCAAH"/>
      <point x="781" y="0" name="OAVIEQYQ"/>
      <point x="882" y="0" type="curve" name="KBQQEYFS"/>
      <point x="882" y="36" name="RPPFGTPV"/>
      <point x="882" y="74" name="GGABVTJW"/>
      <point x="882" y="110" type="curve" name="EOAEFLUK"/>
      <point x="840" y="110" name="BZOCFCXO"/>
      <point x="796" y="110" name="OUJOMOII"/>
      <point x="754" y="110" type="curve" name="UOXALVAY"/>
      <point x="769" y="122" name="BDMMXVZI"/>
      <point x="783" y="133" name="TPSNHVQV"/>
      <point x="798" y="145" type="curve" smooth="yes" name="AGFZFWQY"/>
      <point x="860" y="195" name="OGZNZPEU"/>
      <point x="885" y="243" name="FVEWXTIZ"/>
      <point x="885" y="294" type="curve" smooth="yes" name="ZFLCIVZG"/>
      <point x="885" y="394" name="ZPMRYCRK"/>
      <point x="768" y="456" name="RQIOZIEB"/>
      <point x="583" y="401" type="curve" name="YKMSAOFI"/>
      <point x="583" y="360" name="VOKLGQZI"/>
      <point x="583" y="319" name="QFIRLEDR"/>
      <point x="583" y="278" type="curve" name="NJFEEUAE"/>
      <point x="682" y="312" name="BKMNKAKA"/>
      <point x="742" y="305" name="FLJDBTIC"/>
      <point x="742" y="264" type="curve" smooth="yes" name="RUCJCPIC"/>
      <point x="742" y="244" name="VDMKCQHY"/>
      <point x="724" y="223" name="VPFJGRBN"/>
      <point x="677" y="187" type="curve" smooth="yes" name="KDSMZCCA"/>
      <point x="644" y="162" name="QPJCJQBJ"/>
      <point x="610" y="135" name="KNUQZNLC"/>
      <point x="577" y="110" type="curve" name="ZCKYCDPA"/>
      <point x="577" y="74" name="VPLEHLJY"/>
      <point x="577" y="36" name="UGVTXIDS"/>
    </contour>
  </outline>
</glyph>
<glyph name="threequarters" format="2">
  <advance width="960"/>
  <unicode hex="00BE"/>
  <outline>
    <contour>
      <point x="218" y="0" type="curve" name="OABOOKFS"/>
      <point x="264" y="0" name="ETQDHJED"/>
      <point x="310" y="0" name="WMCLTZAB"/>
      <point x="356" y="0" type="curve" name="RNGOVXQM"/>
      <point x="487" y="224" name="KQNFEXXB"/>
      <point x="621" y="456" name="WUSYKCJE"/>
      <point x="752" y="680" type="curve" name="JCXJDHMB"/>
      <point x="706" y="680" name="MAHQGIAX"/>
      <point x="660" y="680" name="PMKUKHRP"/>
      <point x="614" y="680" type="curve" name="EFLNJRGE"/>
      <point x="483" y="456" name="VECTQROY"/>
      <point x="349" y="224" name="SBKKNYFZ"/>
    </contour>
    <contour>
      <point x="96" y="511" type="curve" name="IOEYKIMD"/>
      <point x="96" y="488" name="ECHJNBVJ"/>
      <point x="96" y="463" name="SRTOYUZR"/>
      <point x="96" y="440" type="curve" name="LZGAEKHF"/>
      <point x="212" y="444" name="VYOFNAPI"/>
      <point x="248" y="434" name="PXSTHOOO"/>
      <point x="248" y="406" type="curve" smooth="yes" name="SROPEFHX"/>
      <point x="248" y="376" name="VZQKQYXS"/>
      <point x="201" y="365" name="KFXBMSVR"/>
      <point x="70" y="396" type="curve" name="OIGEVLQJ"/>
      <point x="70" y="359" name="JLCCANTZ"/>
      <point x="70" y="321" name="PJVLMYMR"/>
      <point x="70" y="284" type="curve" name="UOAPSUWK"/>
      <point x="221" y="243" name="JZWZFKXA"/>
      <point x="374" y="275" name="OJLNGTFS"/>
      <point x="374" y="397" type="curve" smooth="yes" name="KSRVAHOX"/>
      <point x="374" y="463" name="NHCTXEQZ"/>
      <point x="334" y="505" name="IYGREIJV"/>
      <point x="266" y="520" type="curve" name="MJDXOAFP"/>
      <point x="295" y="537" name="ZXSENZZO"/>
      <point x="325" y="556" name="BSWKLVBR"/>
      <point x="354" y="573" type="curve" name="KLYGRMIT"/>
      <point x="354" y="608" name="MWGRAFFK"/>
      <point x="354" y="645" name="KGAZRTYP"/>
      <point x="354" y="680" type="curve" name="IGRVFWOM"/>
      <point x="261" y="680" name="YCPXQHXZ"/>
      <point x="165" y="680" name="BOPFGFIT"/>
      <point x="72" y="680" type="curve" name="BCQRAFCX"/>
      <point x="72" y="645" name="HFUIRSUR"/>
      <point x="72" y="608" name="NQFIJOEB"/>
      <point x="72" y="573" type="curve" name="HXCCOSYD"/>
      <point x="112" y="573" name="CSKKFQKP"/>
      <point x="153" y="573" name="TLDHXUHA"/>
      <point x="193" y="573" type="curve" name="WJHRXAOH"/>
      <point x="161" y="553" name="SZUVVDIP"/>
      <point x="128" y="531" name="FFXGUVCJ"/>
    </contour>
    <contour>
      <point x="551" y="79" type="curve" name="DOUIMMYQ"/>
      <point x="613" y="79" name="IXDBZPSB"/>
      <point x="677" y="79" name="PZTLKLVE"/>
      <point x="739" y="79" type="curve" name="WCKAPWJM"/>
      <point x="739" y="53" name="HOBJSAZS"/>
      <point x="739" y="26" name="PUNSFHXM"/>
      <point x="739" y="0" type="curve" name="ECHHANLI"/>
      <point x="781" y="0" name="DGDGSXSQ"/>
      <point x="823" y="0" name="HPNLAMBT"/>
      <point x="865" y="0" type="curve" name="DVKFMVJG"/>
      <point x="865" y="26" name="CEZBEQFP"/>
      <point x="865" y="53" name="DWXOAXUX"/>
      <point x="865" y="79" type="curve" name="OAFRIFZI"/>
      <point x="883" y="79" name="SIRAPKRF"/>
      <point x="902" y="79" name="PDQAULAF"/>
      <point x="920" y="79" type="curve" name="GRIXBWGS"/>
      <point x="920" y="114" name="AZFFIZPD"/>
      <point x="920" y="151" name="OVLZRTGK"/>
      <point x="920" y="186" type="curve" name="MSIVCYQR"/>
      <point x="902" y="186" name="HXCGHOSY"/>
      <point x="883" y="186" name="HBCCUNTK"/>
      <point x="865" y="186" type="curve" name="GRCYTMDZ"/>
      <point x="865" y="260" name="TLDLAJXN"/>
      <point x="865" y="335" name="UHSKJMLZ"/>
      <point x="865" y="409" type="curve" name="CSGJBXAK"/>
      <point x="805" y="409" name="HZDUCZIW"/>
      <point x="742" y="409" name="QJNQTTPK"/>
      <point x="682" y="409" type="curve" name="ULOXAEOE"/>
      <point x="639" y="335" name="EVLVHPXO"/>
      <point x="594" y="260" name="VRYSCBGI"/>
      <point x="551" y="186" type="curve" name="SGYMPHCS"/>
      <point x="551" y="151" name="FAIEYTMY"/>
      <point x="551" y="114" name="HTUXXFVI"/>
    </contour>
    <contour>
      <point x="682" y="186" type="curve" name="OLNYTBAU"/>
      <point x="701" y="222" name="MXIUBWTJ"/>
      <point x="720" y="258" name="OIXJAXOZ"/>
      <point x="739" y="294" type="curve" name="ZMCRBDCQ"/>
      <point x="739" y="258" name="FDQUHWUD"/>
      <point x="739" y="222" name="ZZIMZVQE"/>
      <point x="739" y="186" type="curve" name="WXNVUOMU"/>
      <point x="720" y="186" name="OFYMAVGA"/>
      <point x="701" y="186" name="OKNYGBGD"/>
    </contour>
  </outline>
</glyph>
<glyph name="Eth" format="2">
  <advance width="691"/>
  <unicode hex="00D0"/>
  <outline>
    <contour>
      <point x="80" y="0" type="curve" name="NVUOQRNF"/>
      <point x="160" y="0" name="JCJJQJPD"/>
      <point x="242" y="0" name="XNFTDCCO"/>
      <point x="322" y="0" type="curve" smooth="yes" name="IFGWMAGF"/>
      <point x="518" y="0" name="IYIUZPYX"/>
      <point x="663" y="146" name="LQTIYNVY"/>
      <point x="663" y="341" type="curve" smooth="yes" name="DAJNLXCP"/>
      <point x="663" y="535" name="JPGTNJDG"/>
      <point x="518" y="680" name="VCQVNXLM"/>
      <point x="322" y="680" type="curve" smooth="yes" name="WZJPHOYF"/>
      <point x="242" y="680" name="QVBEFGDR"/>
      <point x="160" y="680" name="JSKLHKFI"/>
      <point x="80" y="680" type="curve" name="DNJGBOKW"/>
      <point x="80" y="594" name="THRZDEMU"/>
      <point x="80" y="504" name="XWNTHAZL"/>
      <point x="80" y="418" type="curve" name="ZJCEDFZF"/>
      <point x="57" y="418" name="OWFCIGKS"/>
      <point x="33" y="418" name="IFDEPHHU"/>
      <point x="10" y="418" type="curve" name="YJRBWZPC"/>
      <point x="10" y="367" name="EZMAGKZD"/>
      <point x="10" y="314" name="EPUSQCWJ"/>
      <point x="10" y="263" type="curve" name="SNYGWNKY"/>
      <point x="33" y="263" name="YNJGMRDZ"/>
      <point x="57" y="263" name="JFLIFTXG"/>
      <point x="80" y="263" type="curve" name="DJMEKYTW"/>
      <point x="80" y="176" name="RPUVFPLZ"/>
      <point x="80" y="87" name="ZCONRVRO"/>
    </contour>
    <contour>
      <point x="322" y="522" type="curve" smooth="yes" name="AAWJEPAY"/>
      <point x="422" y="522" name="LWVYNEDC"/>
      <point x="486" y="445" name="PNRGFNKH"/>
      <point x="486" y="341" type="curve" smooth="yes" name="PASUJKOG"/>
      <point x="486" y="236" name="EQZAZTPX"/>
      <point x="422" y="158" name="MBZEXWRM"/>
      <point x="322" y="158" type="curve" smooth="yes" name="FLSLCELE"/>
      <point x="300" y="158" name="ZDXRVAYJ"/>
      <point x="277" y="158" name="ZCKILIND"/>
      <point x="255" y="158" type="curve" name="HJWSSYUU"/>
      <point x="255" y="193" name="QZTLGFRB"/>
      <point x="255" y="228" name="AHHRBSFX"/>
      <point x="255" y="263" type="curve" name="VLYTGQWJ"/>
      <point x="296" y="263" name="AALWCPRA"/>
      <point x="339" y="263" name="FYTSHMFS"/>
      <point x="380" y="263" type="curve" name="NWKPUIZR"/>
      <point x="380" y="314" name="WNWSXNQA"/>
      <point x="380" y="367" name="JRKYTNAC"/>
      <point x="380" y="418" type="curve" name="CWGLQEXN"/>
      <point x="339" y="418" name="CTVWRVCL"/>
      <point x="296" y="418" name="HYYPYAMH"/>
      <point x="255" y="418" type="curve" name="XEMDVKYO"/>
      <point x="255" y="452" name="OCZHMEEB"/>
      <point x="255" y="488" name="WCMISMAY"/>
      <point x="255" y="522" type="curve" name="QRZOVABO"/>
      <point x="277" y="522" name="BLGUWJWB"/>
      <point x="300" y="522" name="JXTEBUYD"/>
    </contour>
  </outline>
</glyph>
<glyph name="dotlessi" format="2">
  <advance width="275"/>
  <unicode hex="0131"/>
  <outline>
    <contour>
      <point x="55" y="0" type="curve" name="CMTDOOZY"/>
      <point x="109" y="0" name="KOSNGAUU"/>
      <point x="166" y="0" name="UESPHVEK"/>
      <point x="220" y="0" type="curve" name="PKACHXDX"/>
      <point x="220" y="171" name="FCRQOQCI"/>
      <point x="220" y="346" name="NWMOEXNX"/>
      <point x="220" y="517" type="curve" name="YIZWYWFA"/>
      <point x="166" y="517" name="DDEIOCHZ"/>
      <point x="109" y="517" name="HRFGLQSY"/>
      <point x="55" y="517" type="curve" name="TVJRQXCS"/>
      <point x="55" y="346" name="UZHJCNXY"/>
      <point x="55" y="171" name="CLYJKCXH"/>
    </contour>
  </outline>
</glyph>
<glyph name="oe" format="2">
  <advance width="946"/>
  <unicode hex="0153"/>
  <outline>
    <contour>
      <point x="300" y="-16" type="curve" name="EIHUMGAE"/>
      <point x="377" y="-16" name="HRYQEHCT"/>
      <point x="444" y="13" name="AQDSTUKJ"/>
      <point x="493" y="61" type="curve" name="NOYEALHR"/>
      <point x="584" y="-21" name="VVASDYSM"/>
      <point x="736" y="-38" name="ZIZOOCPK"/>
      <point x="883" y="25" type="curve" name="NWHLHFOC"/>
      <point x="883" y="72" name="LUZQDWFZ"/>
      <point x="883" y="120" name="EVHTBNMB"/>
      <point x="883" y="167" type="curve" name="CAVQNIJB"/>
      <point x="742" y="114" name="CAOOMILN"/>
      <point x="620" y="123" name="FIOONIKX"/>
      <point x="582" y="199" type="curve" name="DQVJMJRN"/>
      <point x="691" y="199" name="AYXRDJBM"/>
      <point x="803" y="199" name="EGJOQTCO"/>
      <point x="912" y="199" type="curve" name="EGMAXOHD"/>
      <point x="947" y="384" name="LETKWJFW"/>
      <point x="849" y="534" name="ZHANTQAC"/>
      <point x="677" y="534" type="curve" smooth="yes" name="GBNVZMGW"/>
      <point x="602" y="534" name="ZXFQRCTC"/>
      <point x="537" y="506" name="SRETHROV"/>
      <point x="490" y="460" type="curve" name="RRQVSKNK"/>
      <point x="442" y="506" name="XTJNBUUT"/>
      <point x="375" y="533" name="CMNNADLL"/>
      <point x="300" y="533" type="curve" smooth="yes" name="DPQVAJFT"/>
      <point x="144" y="533" name="UWXJUPPI"/>
      <point x="27" y="417" name="OWITYRYB"/>
      <point x="27" y="259" type="curve" smooth="yes" name="NNMNXSBO"/>
      <point x="27" y="102" name="SEIFJEVU"/>
      <point x="144" y="-16" name="FZBQTQMY"/>
      <point x="300" y="-16" type="curve" name="JXYKCDXI"/>
      <point x="300" y="-16" name="LNBHSRCI"/>
      <point x="300" y="-16" name="VTWJYOFO"/>
    </contour>
    <contour>
      <point x="673" y="386" type="curve" name="NUDGZTEG"/>
      <point x="714" y="386" name="GGZQXTQJ"/>
      <point x="747" y="366" name="ZCVYUWGR"/>
      <point x="763" y="321" type="curve" name="SOXSFPIO"/>
      <point x="703" y="321" name="MPVBFTKP"/>
      <point x="642" y="321" name="GSTUHZTI"/>
      <point x="582" y="321" type="curve" name="QRPQJXOE"/>
      <point x="599" y="365" name="JDGREVIE"/>
      <point x="634" y="386" name="ZAZKMJFQ"/>
      <point x="673" y="386" type="curve" name="UGTSKOJT"/>
      <point x="673" y="386" name="JOXVVWTG"/>
      <point x="673" y="386" name="HZFNDNAV"/>
    </contour>
    <contour>
      <point x="300" y="133" type="curve" name="ZSWGLNFN"/>
      <point x="235" y="133" name="EEASVGNT"/>
      <point x="192" y="185" name="ALZQFSRN"/>
      <point x="192" y="259" type="curve" smooth="yes" name="ZVIMYGIO"/>
      <point x="192" y="333" name="KCNXSRAL"/>
      <point x="235" y="384" name="URYMJSMT"/>
      <point x="300" y="384" type="curve" smooth="yes" name="TBEZBHJV"/>
      <point x="365" y="384" name="SKWOZQKF"/>
      <point x="408" y="333" name="QIKUHHRV"/>
      <point x="408" y="259" type="curve" smooth="yes" name="XEEOIHOA"/>
      <point x="408" y="185" name="CRRHGPTN"/>
      <point x="365" y="133" name="RBXODILK"/>
      <point x="300" y="133" type="curve" name="CNZVJVQZ"/>
      <point x="300" y="133" name="MBBVWTZY"/>
      <point x="300" y="133" name="GBCNWNTI"/>
    </contour>
  </outline>
</glyph>
<glyph name="circumflex" format="2">
  <advance width="562"/>
  <unicode hex="02C6"/>
  <anchor x="0" y="517" name="top"/>
  <anchor x="280" y="517" name="center"/>
  <outline>
    <contour>
      <point x="60" y="584" type="curve" name="UKXVJAQE"/>
      <point x="116" y="584" name="KNQDVBNZ"/>
      <point x="173" y="584" name="ELJLROQX"/>
      <point x="229" y="584" type="curve" name="GPIORJUL"/>
      <point x="246" y="612" name="RGDQBEPQ"/>
      <point x="264" y="642" name="LUZOUQGR"/>
      <point x="281" y="670" type="curve" name="DSFVSTEF"/>
      <point x="298" y="642" name="MDUHWRCP"/>
      <point x="316" y="612" name="LWWEZNOO"/>
      <point x="333" y="584" type="curve" name="IEALSXMQ"/>
      <point x="389" y="584" name="MSFREYGF"/>
      <point x="446" y="584" name="FOIDDUZU"/>
      <point x="502" y="584" type="curve" name="KOTIYKVA"/>
      <point x="458" y="649" name="VXKZDIAI"/>
      <point x="412" y="715" name="YSIFAMDY"/>
      <point x="368" y="780" type="curve" name="AYWOCWGL"/>
      <point x="311" y="780" name="YIQLJJZK"/>
      <point x="251" y="780" name="WZBBYYJC"/>
      <point x="194" y="780" type="curve" name="JSJLGCUN"/>
      <point x="150" y="715" name="SHOMMBNL"/>
      <point x="104" y="649" name="APFKIAHA"/>
    </contour>
  </outline>
</glyph>
<glyph name="tilde" format="2">
  <advance width="565"/>
  <unicode hex="02DC"/>
  <anchor x="0" y="517" name="top"/>
  <anchor x="282" y="517" name="center"/>
  <outline>
    <contour>
      <point x="397" y="774" type="curve" name="OEFJLSXS"/>
      <point x="397" y="725" name="NZZVWVQJ"/>
      <point x="381" y="706" name="BCVHCJAT"/>
      <point x="357" y="706" type="curve" smooth="yes" name="QGGRJZUY"/>
      <point x="311" y="706" name="BOUMCPZZ"/>
      <point x="275" y="778" name="DYUJDRMT"/>
      <point x="194" y="778" type="curve" smooth="yes" name="IJCQWMEC"/>
      <point x="111" y="778" name="FEYALSIY"/>
      <point x="60" y="714" name="YIBZJHNX"/>
      <point x="60" y="568" type="curve" name="CNLBAZEL"/>
      <point x="96" y="568" name="RBBCYHRG"/>
      <point x="132" y="568" name="NNMTBXHM"/>
      <point x="168" y="568" type="curve" name="WOCKMSEL"/>
      <point x="169" y="619" name="CGRNWSWT"/>
      <point x="184" y="636" name="MYWKAFLQ"/>
      <point x="208" y="636" type="curve" smooth="yes" name="XQZKIWYL"/>
      <point x="254" y="636" name="OPXVXMTV"/>
      <point x="291" y="564" name="NOVTGRSR"/>
      <point x="370" y="564" type="curve" smooth="yes" name="JFXUMHWJ"/>
      <point x="455" y="564" name="WPICYJZI"/>
      <point x="505" y="628" name="YOIOMDNI"/>
      <point x="505" y="774" type="curve" name="IRITOFIU"/>
      <point x="469" y="774" name="ZLIXOMFL"/>
      <point x="433" y="774" name="LWVFYFBR"/>
    </contour>
  </outline>
</glyph>
<glyph name="endash" format="2">
  <advance width="555"/>
  <unicode hex="2013"/>
  <outline>
    <contour>
      <point x="65" y="231" type="curve" name="PHUDTHOU"/>
      <point x="205" y="231" name="OJIVABOT"/>
      <point x="350" y="231" name="ZAXESJNI"/>
      <point x="490" y="231" type="curve" name="PUCVKANP"/>
      <point x="490" y="282" name="LIRNCCBY"/>
      <point x="490" y="335" name="AMBXISBA"/>
      <point x="490" y="386" type="curve" name="MGJJQIIT"/>
      <point x="350" y="386" name="IUFLWXQJ"/>
      <point x="205" y="386" name="LUEHRKKW"/>
      <point x="65" y="386" type="curve" name="NMXYSPEH"/>
      <point x="65" y="335" name="KAHVBOEG"/>
      <point x="65" y="282" name="YXQENROW"/>
    </contour>
  </outline>
</glyph>
<glyph name="quotedblleft" format="2">
  <advance width="518"/>
  <unicode hex="201C"/>
  <outline>
    <contour>
      <point x="254" y="680" type="curve" name="SKOSAHYW"/>
      <point x="206" y="680" name="KSSZCFRU"/>
      <point x="158" y="680" name="JGJUTUSH"/>
      <point x="110" y="680" type="curve" name="OHBYPORB"/>
      <point x="86" y="587" name="UDZUGRCJ"/>
      <point x="60" y="491" name="KHDIORDR"/>
      <point x="36" y="398" type="curve" name="KVLEQFKK"/>
      <point x="92" y="398" name="XMMWFIFX"/>
      <point x="149" y="398" name="PXHRMFYK"/>
      <point x="205" y="398" type="curve" name="MLXRPJAP"/>
      <point x="221" y="491" name="LUQLWRWV"/>
      <point x="238" y="587" name="NFSACYTW"/>
    </contour>
    <contour>
      <point x="475" y="680" type="curve" name="OZFBZTLS"/>
      <point x="427" y="680" name="NUEAFZUF"/>
      <point x="379" y="680" name="TBJTCWNJ"/>
      <point x="331" y="680" type="curve" name="DMLIPJSW"/>
      <point x="307" y="587" name="ZSGXWOSY"/>
      <point x="281" y="491" name="RVMXXDKI"/>
      <point x="257" y="398" type="curve" name="EZHARQNV"/>
      <point x="313" y="398" name="XGONZVBP"/>
      <point x="370" y="398" name="YFIVXQME"/>
      <point x="426" y="398" type="curve" name="CXHCZRBU"/>
      <point x="442" y="491" name="GJGSAIGD"/>
      <point x="459" y="587" name="UMHSQGKC"/>
    </contour>
  </outline>
</glyph>
<glyph name="bullet" format="2">
  <advance width="552"/>
  <unicode hex="2022"/>
  <outline>
    <contour>
      <point x="277" y="121" type="curve" name="BCFDCCRP"/>
      <point x="380" y="121" name="KUOSREVV"/>
      <point x="466" y="205" name="UUPRUGGE"/>
      <point x="466" y="308" type="curve" smooth="yes" name="FCIJGGWA"/>
      <point x="466" y="409" name="ZJNOSYBX"/>
      <point x="380" y="493" name="WAYAWEIX"/>
      <point x="277" y="493" type="curve" smooth="yes" name="UQDDRVLY"/>
      <point x="171" y="493" name="CBQATSDI"/>
      <point x="86" y="409" name="RRHSVSGM"/>
      <point x="86" y="308" type="curve" smooth="yes" name="XFDHBLRZ"/>
      <point x="86" y="205" name="BJYOEEYT"/>
      <point x="171" y="121" name="JZXLMMKS"/>
      <point x="277" y="121" type="curve" name="TYZTIZCE"/>
      <point x="277" y="121" name="BMKHWZVV"/>
      <point x="277" y="121" name="XJDTGIHQ"/>
    </contour>
  </outline>
</glyph>
<glyph name="ellipsis" format="2">
  <advance width="873"/>
  <unicode hex="2026"/>
  <outline>
    <contour>
      <point x="146" y="-16" type="curve" name="AWUDNUDR"/>
      <point x="203" y="-16" name="PBFCPGHG"/>
      <point x="251" y="31" name="HGXGGWBX"/>
      <point x="251" y="88" type="curve" smooth="yes" name="CDQFASMR"/>
      <point x="251" y="144" name="JGMICEWO"/>
      <point x="203" y="191" name="IHWZEQDP"/>
      <point x="146" y="191" type="curve" smooth="yes" name="QJYGUOVK"/>
      <point x="87" y="191" name="BRXZPTZP"/>
      <point x="40" y="144" name="WIDUUSOJ"/>
      <point x="40" y="88" type="curve" smooth="yes" name="JIVHQSNZ"/>
      <point x="40" y="31" name="VIDZYGPL"/>
      <point x="87" y="-16" name="ZRQCFZCG"/>
      <point x="146" y="-16" type="curve" name="OKKJLONL"/>
      <point x="146" y="-16" name="UOJYGIOQ"/>
      <point x="146" y="-16" name="GHZMTXOW"/>
    </contour>
    <contour>
      <point x="437" y="-16" type="curve" name="FUSMCYJR"/>
      <point x="494" y="-16" name="UQKGUILM"/>
      <point x="542" y="31" name="HWGNVCSV"/>
      <point x="542" y="88" type="curve" smooth="yes" name="ZDBMRZLN"/>
      <point x="542" y="144" name="YSLMPIUE"/>
      <point x="494" y="191" name="WFYTUHWC"/>
      <point x="437" y="191" type="curve" smooth="yes" name="ZHJWYLKX"/>
      <point x="378" y="191" name="QAENZEMN"/>
      <point x="331" y="144" name="UDSNTKJG"/>
      <point x="331" y="88" type="curve" smooth="yes" name="LCIEFKIT"/>
      <point x="331" y="31" name="ASGKMHEX"/>
      <point x="378" y="-16" name="VTWZYYKW"/>
      <point x="437" y="-16" type="curve" name="NLPYHEIG"/>
      <point x="437" y="-16" name="JRBUWLHK"/>
      <point x="437" y="-16" name="SJHGNLRT"/>
    </contour>
    <contour>
      <point x="728" y="-16" type="curve" name="HUPRKMEA"/>
      <point x="785" y="-16" name="QZVBJXKF"/>
      <point x="833" y="31" name="WAXTMOXZ"/>
      <point x="833" y="88" type="curve" smooth="yes" name="AIOSVTBY"/>
      <point x="833" y="144" name="NYWYTNXB"/>
      <point x="785" y="191" name="FAWOTVFZ"/>
      <point x="728" y="191" type="curve" smooth="yes" name="OCZCGJXS"/>
      <point x="669" y="191" name="YFCHQEPG"/>
      <point x="622" y="144" name="BZIOCLFT"/>
      <point x="622" y="88" type="curve" smooth="yes" name="IHJAFYHA"/>
      <point x="622" y="31" name="YMUWJCRX"/>
      <point x="669" y="-16" name="EUVADHMF"/>
      <point x="728" y="-16" type="curve" name="MTFADJSD"/>
      <point x="728" y="-16" name="YMLWBZJV"/>
      <point x="728" y="-16" name="HVQGARJY"/>
    </contour>
  </outline>
</glyph>
<glyph name="guilsinglleft" format="2">
  <advance width="427"/>
  <unicode hex="2039"/>
  <outline>
    <contour>
      <point x="40" y="172" type="curve" name="HPURUJWS"/>
      <point x="151" y="109" name="CXNMTRXI"/>
      <point x="266" y="44" name="SDNTJBIA"/>
      <point x="377" y="-19" type="curve" name="WJCYSQIE"/>
      <point x="377" y="42" name="DMGEQZFD"/>
      <point x="377" y="106" name="QFSAUTDH"/>
      <point x="377" y="167" type="curve" name="NHXIRIRP"/>
      <point x="319" y="199" name="HPKLFLBH"/>
      <point x="258" y="231" name="NBVDXOSC"/>
      <point x="200" y="263" type="curve" name="IZZJMYUJ"/>
      <point x="258" y="294" name="VZMHJVVH"/>
      <point x="319" y="326" name="DQQALLVP"/>
      <point x="377" y="357" type="curve" name="DOYVXWSE"/>
      <point x="377" y="417" name="KDDEIONX"/>
      <point x="377" y="480" name="HMJKAPUH"/>
      <point x="377" y="540" type="curve" name="TQEVIEOC"/>
      <point x="266" y="477" name="TSJSLMXB"/>
      <point x="151" y="412" name="MMQPCQGP"/>
      <point x="40" y="349" type="curve" name="DCVGYPFC"/>
      <point x="40" y="291" name="IBBELAXM"/>
      <point x="40" y="230" name="DPUKFYTV"/>
    </contour>
  </outline>
</glyph>
<glyph name="guilsinglright" format="2">
  <advance width="427"/>
  <unicode hex="203A"/>
  <outline>
    <contour>
      <point x="387" y="172" type="curve" name="NCNCOHPG"/>
      <point x="387" y="230" name="TDVXEPPL"/>
      <point x="387" y="291" name="IGQJKTLG"/>
      <point x="387" y="349" type="curve" name="BVMEKEMB"/>
      <point x="276" y="412" name="VEUEYXDY"/>
      <point x="161" y="477" name="IQUAZIDJ"/>
      <point x="50" y="540" type="curve" name="EEQZAZTF"/>
      <point x="50" y="479" name="MRUTBBNZ"/>
      <point x="50" y="415" name="DLVBVNGG"/>
      <point x="50" y="354" type="curve" name="PXANKKHP"/>
      <point x="108" y="322" name="AUJWVMPW"/>
      <point x="169" y="290" name="AKPWLXNM"/>
      <point x="227" y="258" type="curve" name="ZQPHGQSL"/>
      <point x="169" y="227" name="LODNJPNP"/>
      <point x="108" y="195" name="HQDRRRNT"/>
      <point x="50" y="164" type="curve" name="JVCHNQOT"/>
      <point x="50" y="104" name="XVPQHYIN"/>
      <point x="50" y="41" name="GLOBIBTQ"/>
      <point x="50" y="-19" type="curve" name="SRIVYUQA"/>
      <point x="161" y="44" name="LOWIAVWQ"/>
      <point x="276" y="109" name="HYHBLICX"/>
    </contour>
  </outline>
</glyph>
<glyph name="fraction" format="2">
  <advance width="568"/>
  <unicode hex="2044"/>
  <outline>
    <contour>
      <point x="17" y="0" type="curve" name="EHETETDC"/>
      <point x="63" y="0" name="EHWFLKLQ"/>
      <point x="109" y="0" name="IBKRCMDZ"/>
      <point x="155" y="0" type="curve" name="SQFAOMXR"/>
      <point x="286" y="224" name="MSKGDTKX"/>
      <point x="420" y="456" name="RRFCHHDH"/>
      <point x="551" y="680" type="curve" name="QIXEMUVI"/>
      <point x="505" y="680" name="DAJLJXMU"/>
      <point x="459" y="680" name="WLGLQKZM"/>
      <point x="413" y="680" type="curve" name="WAUTEDAO"/>
      <point x="282" y="456" name="XHGYMSIF"/>
      <point x="148" y="224" name="EKPUKGCV"/>
    </contour>
  </outline>
</glyph>
<glyph name="four.superior" format="2">
  <advance width="434"/>
  <unicode hex="2074"/>
  <outline>
    <contour>
      <point x="218" y="271" type="curve" name="FAXXNYQL"/>
      <point x="260" y="271" name="YYBNMCJU"/>
      <point x="302" y="271" name="LLBZGMAE"/>
      <point x="344" y="271" type="curve" name="FOEBUMME"/>
      <point x="344" y="297" name="QBRAPOAK"/>
      <point x="344" y="324" name="KGOGXFRV"/>
      <point x="344" y="350" type="curve" name="LQSXDZDQ"/>
      <point x="362" y="350" name="RVADEECM"/>
      <point x="381" y="350" name="YOUYPNHR"/>
      <point x="399" y="350" type="curve" name="DKKNOLHB"/>
      <point x="399" y="385" name="INWUNOSW"/>
      <point x="399" y="422" name="PJNDAWVR"/>
      <point x="399" y="457" type="curve" name="OZFLOCNG"/>
      <point x="381" y="457" name="DFJEIGWT"/>
      <point x="362" y="457" name="CHTPAIPQ"/>
      <point x="344" y="457" type="curve" name="NRVGBQKP"/>
      <point x="344" y="531" name="EUMNOBSO"/>
      <point x="344" y="606" name="UTHMGSZD"/>
      <point x="344" y="680" type="curve" name="QQUCFNXQ"/>
      <point x="284" y="680" name="JELSPEXG"/>
      <point x="221" y="680" name="JDVNQWPD"/>
      <point x="161" y="680" type="curve" name="MKWHJWFH"/>
      <point x="118" y="606" name="HYBIJVYB"/>
      <point x="73" y="531" name="SXBVJJPR"/>
      <point x="30" y="457" type="curve" name="WIPAPAZQ"/>
      <point x="30" y="422" name="TPMBCCVY"/>
      <point x="30" y="385" name="XJMWYBFZ"/>
      <point x="30" y="350" type="curve" name="UYBEKZEQ"/>
      <point x="92" y="350" name="XWYKWCPT"/>
      <point x="156" y="350" name="DKRFJADS"/>
      <point x="218" y="350" type="curve" name="LQSABJFX"/>
      <point x="218" y="324" name="RMTEEJAN"/>
      <point x="218" y="297" name="IZPBFPPJ"/>
    </contour>
    <contour>
      <point x="161" y="457" type="curve" name="TVDOKKYM"/>
      <point x="180" y="493" name="ZBKYBVVP"/>
      <point x="199" y="529" name="ZFVRNCKZ"/>
      <point x="218" y="565" type="curve" name="GPNPDFMO"/>
      <point x="218" y="529" name="XFEWZLBA"/>
      <point x="218" y="493" name="EJFIPAEJ"/>
      <point x="218" y="457" type="curve" name="XHOEUMCM"/>
      <point x="199" y="457" name="EQXNHMXA"/>
      <point x="180" y="457" name="UQUFUIUD"/>
    </contour>
  </outline>
</glyph>
<glyph name="minus" format="2">
  <advance width="476"/>
  <unicode hex="2212"/>
  <outline>
    <contour>
      <point x="40" y="231" type="curve" name="VLPEWJQI"/>
      <point x="171" y="231" name="BEQXLPSP"/>
      <point x="305" y="231" name="KYJOYKZM"/>
      <point x="436" y="231" type="curve" name="RGIOHTKT"/>
      <point x="436" y="282" name="SXSCCWXC"/>
      <point x="436" y="335" name="NHDGWPAW"/>
      <point x="436" y="386" type="curve" name="RIZMPPPZ"/>
      <point x="305" y="386" name="NFINQYLF"/>
      <point x="171" y="386" name="XFESBXFW"/>
      <point x="40" y="386" type="curve" name="SJIXOELT"/>
      <point x="40" y="335" name="WSVMCMAS"/>
      <point x="40" y="282" name="AUPNFLQB"/>
    </contour>
  </outline>
</glyph>
<glyph name="acute.cap" format="2">
  <advance width="408"/>
  <anchor x="0" y="680.0" name="top"/>
  <anchor x="154" y="680.0" name="center"/>
  <outline>
    <contour>
      <point x="70" y="747" type="curve" name="FUWFOSSQ"/>
      <point x="121" y="747" name="OPLFDSBG"/>
      <point x="173" y="747" name="YPQGVYAJ"/>
      <point x="224" y="747" type="curve" name="YATTRZID"/>
      <point x="268" y="812" name="KXRSAWSW"/>
      <point x="314" y="878" name="YDJIJGVI"/>
      <point x="358" y="943" type="curve" name="FITHKNMQ"/>
      <point x="299" y="943" name="CZULKJBP"/>
      <point x="238" y="943" name="VBXWAEKY"/>
      <point x="179" y="943" type="curve" name="UCPOJSRN"/>
      <point x="143" y="878" name="YORHXBPC"/>
      <point x="106" y="812" name="MUZRGKHK"/>
    </contour>
  </outline>
</glyph>
<glyph name="dieresis.cap" format="2">
  <advance width="577"/>
  <anchor x="0" y="680.0" name="top"/>
  <anchor x="288" y="680.0" name="center"/>
  <outline>
    <contour>
      <point x="169" y="739" type="curve" name="XOMMDDTG"/>
      <point x="225" y="739" name="OWNYRXWN"/>
      <point x="272" y="785" name="MCIHYLWQ"/>
      <point x="272" y="841" type="curve" smooth="yes" name="MAJHOXHN"/>
      <point x="272" y="896" name="RGRMDOIQ"/>
      <point x="225" y="942" name="KNJWDTSD"/>
      <point x="169" y="942" type="curve" smooth="yes" name="PNISBREX"/>
      <point x="111" y="942" name="AOQJUGOJ"/>
      <point x="65" y="896" name="NJZVWWMY"/>
      <point x="65" y="841" type="curve" smooth="yes" name="YCFMGHXY"/>
      <point x="65" y="785" name="WQUGFLXL"/>
      <point x="111" y="739" name="OQVYLBZQ"/>
      <point x="169" y="739" type="curve" name="KYVPCFAM"/>
      <point x="169" y="739" name="KIOYOSYT"/>
      <point x="169" y="739" name="PSBLAFAS"/>
    </contour>
    <contour>
      <point x="409" y="739" type="curve" name="ZNDZDZAJ"/>
      <point x="465" y="739" name="IGLBKCTA"/>
      <point x="512" y="785" name="IFEGXKGT"/>
      <point x="512" y="841" type="curve" smooth="yes" name="OTUQFAQM"/>
      <point x="512" y="896" name="BPUHTSDX"/>
      <point x="465" y="942" name="KSNYOTGQ"/>
      <point x="409" y="942" type="curve" smooth="yes" name="JGKPIKTN"/>
      <point x="351" y="942" name="YFVEZEPI"/>
      <point x="305" y="896" name="OWXHWDTT"/>
      <point x="305" y="841" type="curve" smooth="yes" name="PZBSYDFF"/>
      <point x="305" y="785" name="BAJQHECO"/>
      <point x="351" y="739" name="FNZVPIIL"/>
      <point x="409" y="739" type="curve" name="HLGENGHP"/>
      <point x="409" y="739" name="ZCWWKCIJ"/>
      <point x="409" y="739" name="HIJVSLNY"/>
    </contour>
  </outline>
</glyph>
<glyph name="macron.cap" format="2">
  <advance width="490"/>
  <anchor x="0" y="680.0" name="top"/>
  <anchor x="245" y="680.0" name="center"/>
  <outline>
    <contour>
      <point x="60" y="758" type="curve" name="TNTYXZOD"/>
      <point x="182" y="758" name="ADWDFXSV"/>
      <point x="308" y="758" name="GNDXCOSK"/>
      <point x="430" y="758" type="curve" name="STWQBYCS"/>
      <point x="430" y="806" name="XUAVHEKR"/>
      <point x="430" y="855" name="WQAGIEBC"/>
      <point x="430" y="903" type="curve" name="HYSLJVYR"/>
      <point x="308" y="903" name="KTZUHKGH"/>
      <point x="182" y="903" name="RNWFORJG"/>
      <point x="60" y="903" type="curve" name="BOWTTAZH"/>
      <point x="60" y="855" name="YMDKWMPM"/>
      <point x="60" y="806" name="YWXAEUOV"/>
    </contour>
  </outline>
</glyph>
<glyph name="t.alt" format="2">
  <advance width="438"/>
  <outline>
    <contour>
      <point x="109" y="157" type="curve" smooth="yes" name="KMARDNCV"/>
      <point x="109" y="-1" name="HRXKHNZI"/>
      <point x="253" y="-38" name="FICYPPFC"/>
      <point x="396" y="5" type="curve" name="HHJSMZTQ"/>
      <point x="396" y="54" name="IRTZDAEM"/>
      <point x="396" y="106" name="CTGORSCO"/>
      <point x="396" y="155" type="curve" name="NVBNNEJT"/>
      <point x="328" y="134" name="RQRJZXRK"/>
      <point x="274" y="144" name="RZAKTUYI"/>
      <point x="274" y="198" type="curve" smooth="yes" name="QCKBAROV"/>
      <point x="274" y="254" name="YSCNFJFG"/>
      <point x="274" y="313" name="HZRQBMCM"/>
      <point x="274" y="369" type="curve" name="EZTXNCFW"/>
      <point x="312" y="369" name="UTKMMUWG"/>
      <point x="352" y="369" name="AHOBFHCZ"/>
      <point x="390" y="369" type="curve" name="ORDIIXHE"/>
      <point x="390" y="418" name="VLHEZPSC"/>
      <point x="390" y="468" name="MSFHFZQH"/>
      <point x="390" y="517" type="curve" name="HZHHLXHP"/>
      <point x="352" y="517" name="DUPVSSVG"/>
      <point x="312" y="517" name="UHOYRVDO"/>
      <point x="274" y="517" type="curve" name="DCSANUVP"/>
      <point x="274" y="563" name="EZFEGJXO"/>
      <point x="274" y="609" name="UHCCFJXS"/>
      <point x="274" y="655" type="curve" name="OOUXCCHX"/>
      <point x="220" y="655" name="ZFTMECGI"/>
      <point x="163" y="655" name="CYLQIZZR"/>
      <point x="109" y="655" type="curve" name="KNCVKZBD"/>
      <point x="109" y="609" name="NDJNRXHS"/>
      <point x="109" y="563" name="HIQHFYAN"/>
      <point x="109" y="517" type="curve" name="OZPGXATC"/>
      <point x="82" y="517" name="AHTHNOEQ"/>
      <point x="55" y="517" name="XNAHOEDB"/>
      <point x="28" y="517" type="curve" name="CMGNHERK"/>
      <point x="28" y="468" name="TWSIMJUE"/>
      <point x="28" y="418" name="QVAVABXI"/>
      <point x="28" y="369" type="curve" name="SMRLKRNX"/>
      <point x="55" y="369" name="POPUZTVI"/>
      <point x="82" y="369" name="CVDZQADJ"/>
      <point x="109" y="369" type="curve" name="QOLANIGK"/>
      <point x="109" y="299" name="SKWKCCUZ"/>
      <point x="109" y="227" name="WRTKDAPV"/>
    </contour>
  </outline>
</glyph>
